<svg width="209" height="356" viewBox="0 0 209 356" fill="none" xmlns="http://www.w3.org/2000/svg">
<path d="M7.9463 347.6V321.494H14.4443L25.8443 336.922V321.494H32.3423V347.6H25.8443L14.4443 332.172V347.6H7.9463ZM46.6805 348.056C40.6765 348.056 35.7365 343.42 35.7365 337.758C35.7365 332.096 40.6765 327.498 46.6805 327.498C52.6845 327.498 57.5865 332.096 57.5865 337.758C57.5865 343.42 52.6845 348.056 46.6805 348.056ZM46.6805 342.698C49.3405 342.698 51.4685 340.456 51.4685 337.758C51.4685 335.06 49.3405 332.856 46.6805 332.856C44.0585 332.856 41.8925 335.06 41.8925 337.758C41.8925 340.456 44.0585 342.698 46.6805 342.698ZM71.3178 342.052L72.6098 346.194C71.4318 347.296 69.4938 348.056 67.8218 348.056C64.1358 348.056 61.5518 345.434 61.5518 341.748V333.084H58.9678V327.954H61.5518V322.558H67.7078V327.954H71.7738V333.084H67.7078V340.57C67.7078 341.824 68.4678 342.698 69.4938 342.698C70.2158 342.698 70.9378 342.432 71.3178 342.052ZM107.028 327.308H92.9677V331.982H105.774V337.796H92.9677V347.6H86.4697V321.494H107.028V327.308ZM120.12 348.056C114.116 348.056 109.176 343.42 109.176 337.758C109.176 332.096 114.116 327.498 120.12 327.498C126.124 327.498 131.026 332.096 131.026 337.758C131.026 343.42 126.124 348.056 120.12 348.056ZM120.12 342.698C122.78 342.698 124.908 340.456 124.908 337.758C124.908 335.06 122.78 332.856 120.12 332.856C117.498 332.856 115.332 335.06 115.332 337.758C115.332 340.456 117.498 342.698 120.12 342.698ZM146.537 327.954H152.959V347.6H146.537V345.396C145.321 347.03 143.269 348.056 140.799 348.056C136.543 348.056 133.541 344.902 133.541 340.456V327.954H139.697V339.012C139.697 341.178 141.103 342.698 143.079 342.698C145.055 342.698 146.537 341.216 146.537 339.278V327.954ZM169.387 327.498C173.643 327.498 176.645 330.652 176.645 335.098V347.6H170.489V336.542C170.489 334.376 169.121 332.856 167.145 332.856C165.169 332.856 163.687 334.338 163.687 336.276V347.6H157.227V327.954H163.687V330.12C164.903 328.524 166.955 327.498 169.387 327.498ZM194.82 321.038H201.242V347.6H194.82V345.054C193.262 346.954 191.02 348.056 188.36 348.056C183.116 348.056 179.354 343.8 179.354 337.758C179.354 331.754 183.116 327.498 188.36 327.498C191.02 327.498 193.262 328.6 194.82 330.5V321.038ZM190.336 342.698C192.958 342.698 194.82 340.646 194.82 337.758C194.82 334.908 192.958 332.856 190.336 332.856C187.524 332.856 185.548 334.908 185.548 337.758C185.548 340.646 187.524 342.698 190.336 342.698Z" fill="black"/>
<path d="M38.7008 292.6V279.5H5.40078L3.90078 266.5L35.0008 223.9H55.8008V265.3H64.5008V279.5H55.8008V292.6H38.7008ZM21.6008 265.3H38.7008V241.7L21.6008 265.3ZM104.57 293.8C85.9695 293.8 72.8695 279.1 72.8695 258.2C72.8695 237.4 85.9695 222.7 104.57 222.7C123.07 222.7 136.17 237.4 136.17 258.2C136.17 279.1 123.07 293.8 104.57 293.8ZM104.57 278.3C112.77 278.3 118.57 269.9 118.57 258.2C118.57 246.5 112.77 238.2 104.57 238.2C96.2695 238.2 90.4695 246.5 90.4695 258.2C90.4695 269.9 96.2695 278.3 104.57 278.3ZM179.13 292.6V279.5H145.83L144.33 266.5L175.43 223.9H196.23V265.3H204.93V279.5H196.23V292.6H179.13ZM162.03 265.3H179.13V241.7L162.03 265.3Z" fill="#FF5A5A"/>
<path fill-rule="evenodd" clip-rule="evenodd" d="M204 14.6667C204 10.78 202.453 7.04667 199.707 4.29333C196.953 1.54667 193.22 0 189.333 0C158.727 0 49.2733 0 18.6667 0C14.78 0 11.0467 1.54667 8.29333 4.29333C5.54667 7.04667 4 10.78 4 14.6667C4 40.2333 4 119.767 4 145.333C4 149.22 5.54667 152.953 8.29333 155.707C11.0467 158.453 14.78 160 18.6667 160C49.2733 160 158.727 160 189.333 160C193.22 160 196.953 158.453 199.707 155.707C202.453 152.953 204 149.22 204 145.333V14.6667ZM17.3333 40V145.333C17.3333 145.687 17.4733 146.027 17.7267 146.273C17.9733 146.527 18.3133 146.667 18.6667 146.667H189.333C189.687 146.667 190.027 146.527 190.273 146.273C190.527 146.027 190.667 145.687 190.667 145.333V46.6667H145.887C143.613 46.6667 141.367 46.1333 139.327 45.12L129.373 40.14C129.187 40.0467 128.987 40 128.78 40H17.3333ZM190.667 33.3333V14.6667C190.667 14.3133 190.527 13.9733 190.273 13.7267C190.027 13.4733 189.687 13.3333 189.333 13.3333H18.6667C18.3133 13.3333 17.9733 13.4733 17.7267 13.7267C17.4733 13.9733 17.3333 14.3133 17.3333 14.6667V26.6667H128.78C131.053 26.6667 133.3 27.2 135.34 28.2133L145.293 33.1933C145.48 33.2867 145.68 33.3333 145.887 33.3333H190.667Z" fill="black"/>
<path fill-rule="evenodd" clip-rule="evenodd" d="M57.9066 83.3333L52.6199 88.6199C50.0199 91.2199 50.0199 95.4466 52.6199 98.0466C55.2199 100.647 59.4466 100.647 62.0466 98.0466L67.3333 92.7599L72.6199 98.0466C75.2199 100.647 79.4466 100.647 82.0466 98.0466C84.6466 95.4466 84.6466 91.2199 82.0466 88.6199L76.7599 83.3333L82.0466 78.0466C84.6466 75.4466 84.6466 71.2199 82.0466 68.6199C79.4466 66.0199 75.2199 66.0199 72.6199 68.6199L67.3333 73.9066L62.0466 68.6199C59.4466 66.0199 55.2199 66.0199 52.6199 68.6199C50.0199 71.2199 50.0199 75.4466 52.6199 78.0466L57.9066 83.3333Z" fill="black"/>
<path fill-rule="evenodd" clip-rule="evenodd" d="M131.24 83.3333L125.953 88.6199C123.353 91.2199 123.353 95.4466 125.953 98.0466C128.553 100.647 132.78 100.647 135.38 98.0466L140.667 92.7599L145.953 98.0466C148.553 100.647 152.78 100.647 155.38 98.0466C157.98 95.4466 157.98 91.2199 155.38 88.6199L150.093 83.3333L155.38 78.0466C157.98 75.4466 157.98 71.2199 155.38 68.6199C152.78 66.0199 148.553 66.0199 145.953 68.6199L140.667 73.9066L135.38 68.6199C132.78 66.0199 128.553 66.0199 125.953 68.6199C123.353 71.2199 123.353 75.4466 125.953 78.0466L131.24 83.3333Z" fill="black"/>
<path fill-rule="evenodd" clip-rule="evenodd" d="M74.3533 125.959C74.3533 125.959 80.16 128.866 84.1066 130.839C88.2333 132.906 93.1 132.906 97.2266 130.839L103.407 127.753C103.78 127.566 104.22 127.566 104.593 127.753L110.773 130.839C114.9 132.906 119.767 132.906 123.893 130.839C127.84 128.866 133.647 125.959 133.647 125.959C136.94 124.319 138.273 120.306 136.627 117.019C134.987 113.726 130.973 112.393 127.687 114.039L117.927 118.913C117.553 119.099 117.113 119.099 116.74 118.913L110.56 115.826C106.433 113.759 101.567 113.759 97.44 115.826L91.26 118.913C90.8866 119.099 90.4466 119.099 90.0733 118.913L80.3133 114.039C77.0266 112.393 73.0133 113.726 71.3733 117.019C69.7266 120.306 71.06 124.319 74.3533 125.959Z" fill="black"/>
</svg>
