<svg version="1.2" xmlns="http://www.w3.org/2000/svg" viewBox="0 0 825 513" width="825" height="513">
	<title>hero-carousel-2-svg</title>
	<style>
		.s0 { fill: #cacaca } 
		.s1 { fill: #3f3d56 } 
		.s2 { fill: #0ea2bd } 
		.s3 { fill: #e6e6e6 } 
		.s4 { fill: #cccccc } 
		.s5 { opacity: .2;fill: #000000 } 
		.s6 { fill: #ff6584 } 
		.s7 { fill: #f2f2f2 } 
		.s8 { fill: #a0616a } 
		.s9 { fill: #2f2e41 } 
		.s10 { fill: #ffb6b6 } 
		.s11 { fill: #ffffff } 
	</style>
	<path id="Layer" class="s0" d="m645 34.5h-465.3c-0.4 0-0.9-0.2-1.2-0.6c-0.3-0.3-0.5-0.7-0.5-1.2c0-0.5 0.2-0.9 0.5-1.3c0.3-0.3 0.8-0.5 1.2-0.5h465.3c0.5 0 1 0.2 1.3 0.5c0.3 0.4 0.5 0.8 0.5 1.3c0 0.5-0.2 0.9-0.5 1.2c-0.3 0.4-0.8 0.6-1.3 0.6z" />
	<path id="Layer" class="s1" d="m210.7 21.6c-5.9 0-10.6-4.8-10.6-10.8c0-6 4.7-10.8 10.6-10.8c5.8 0 10.6 4.8 10.6 10.8c0 6-4.8 10.8-10.6 10.8z" />
	<path id="Layer" class="s1" d="m247.2 21.6c-5.8 0-10.5-4.8-10.5-10.8c0-6 4.7-10.8 10.5-10.8c5.9 0 10.6 4.8 10.6 10.8c0 6-4.7 10.8-10.6 10.8z" />
	<path id="Layer" class="s1" d="m283.8 21.6c-5.8 0-10.6-4.8-10.6-10.8c0-6 4.8-10.8 10.6-10.8c5.9 0 10.6 4.8 10.6 10.8c0 6-4.7 10.8-10.6 10.8z" />
	<path id="Layer" class="s1" d="m624.4 3.3c0.3 0.3 0.5 0.8 0.5 1.3c0 0.6-0.2 1.1-0.5 1.4c-0.4 0.4-0.9 0.6-1.4 0.6h-26c-0.5 0-1-0.2-1.3-0.6c-0.4-0.3-0.6-0.8-0.6-1.4c0-0.5 0.2-1 0.6-1.3c0.3-0.4 0.8-0.6 1.3-0.6h26c0.5 0 1 0.2 1.4 0.6z" />
	<path id="Layer" class="s1" d="m624.4 10.7c0.3 0.3 0.5 0.8 0.5 1.3c0 0.5-0.2 1-0.5 1.4c-0.4 0.4-0.9 0.6-1.4 0.6h-26c-0.5 0-1-0.2-1.3-0.6c-0.4-0.4-0.6-0.9-0.6-1.4c0-0.5 0.2-1 0.6-1.3c0.3-0.4 0.8-0.6 1.3-0.6h26c0.5 0 1 0.2 1.4 0.6z" />
	<path id="Layer" class="s1" d="m624.4 18c0.3 0.4 0.5 0.9 0.5 1.4c0 0.5-0.2 1-0.5 1.4c-0.4 0.4-0.9 0.6-1.4 0.6h-26c-0.5 0-1-0.2-1.3-0.6c-0.4-0.4-0.6-0.9-0.6-1.4c0-0.5 0.2-1 0.6-1.4c0.3-0.3 0.8-0.5 1.3-0.6h26c0.5 0.1 1 0.3 1.4 0.6z" />
	<path id="Layer" class="s2" d="m530.9 64.7c0-2.6 2.1-4.7 4.7-4.7h34.4c2.6 0 4.7 2.1 4.7 4.7c0 2.6-2.1 4.7-4.7 4.7h-34.4c-2.6 0-4.7-2.1-4.7-4.7z" />
	<path id="Layer" class="s3" d="m508.7 83.4c0-2.6 2.1-4.7 4.7-4.7h78.9c2.6 0 4.7 2.1 4.7 4.7c0 2.6-2.1 4.7-4.7 4.7h-78.9c-2.6 0-4.7-2.1-4.7-4.7z" />
	<path id="Layer" class="s3" d="m508.7 102.2c0-2.6 2.1-4.7 4.7-4.7h78.9c2.6 0 4.7 2.1 4.7 4.7c0 2.5-2.1 4.6-4.7 4.6h-78.9c-2.6 0-4.7-2.1-4.7-4.6z" />
	<path id="Layer" class="s3" d="m193.9 314.1h-21.7c-0.6 0-3.8-1.7-3.8-3.8v-12.1c-0.1-9.1 29.7-9.7 29.9 0v12.1c0 2.1-2.3 3.8-4.4 3.8z" />
	<path id="Layer" class="s2" d="m195.7 290.4q0.4 0.3 0.6 0.6q0.3 0.4 0.4 0.8q0.1 0.4 0.1 0.8q0 0.3-0.1 0.7q-0.2 0.3-0.4 0.6q-0.2 0.3-0.4 0.5q-0.3 0.2-0.6 0.4q-0.4 0.1-0.7 0.2q-0.3 0.1-0.7 0.2q-0.3 0.1-0.6 0.2q-0.4 0-0.7 0.1q-2.6 0.3-5.2 0.4q-2.6 0.2-5.3 0.2q-2.6 0-5.2-0.2q-2.6-0.1-5.2-0.4c-0.8-0.1-1.9-0.5-2-1.3q0-0.3 0.1-0.6q0-0.2 0.2-0.4q0.2-0.2 0.4-0.3q0.2-0.1 0.5-0.2q0.3 0 0.5 0q0.3 0 0.5 0.1q0.3 0 0.5 0.1q0.3 0.1 0.5 0.2q-0.2-0.3-0.3-0.7q-0.1-0.4-0.1-0.8q0-0.3 0.2-0.7q0.1-0.3 0.3-0.6q0.2-0.2 0.3-0.3q0.2-0.2 0.4-0.3q0.2-0.1 0.4-0.1q0.2-0.1 0.4-0.1q-0.2-0.1-0.3-0.3q-0.1-0.1-0.2-0.2q-0.1-0.2-0.2-0.4q0-0.1 0-0.3q-0.1-0.1-0.1-0.1q0.2 0 0.4 0.1q0.1 0.1 0.2 0.1q0.1 0 0.2 0q0.2 0 0.3-0.1q0.1 0 0.2-0.1q0-0.1 0.1-0.1q0-0.1 0-0.2q0-0.1 0-0.1q0-0.1 0-0.2q-0.1 0-0.1-0.1q0-0.1-0.1-0.1q0-0.1-0.1-0.2q0 0-0.1-0.1q0.2 0.2 0.4 0.1q0.3 0 0.4-0.2q0.1-0.2 0-0.4q-0.1-0.2-0.3-0.3l1.3 0.2c0.2 0 0.4 0 0.5-0.1q0-0.1 0-0.1q0-0.1 0-0.1q0-0.1 0-0.1q0-0.1-0.1-0.1q0 0-0.1-0.1q0 0 0 0q-0.1 0-0.1-0.1q-0.1 0-0.1 0l-0.6-0.2q0.2-0.1 0.4-0.1q0.3-0.1 0.5-0.1q0.2 0 0.5 0q0.2-0.1 0.4-0.1q-0.5 0-0.9-0.2q-0.4-0.3-0.6-0.8q-0.2-0.5-0.1-1q0.2-0.5 0.6-0.8q0.3-0.2 0.6-0.3q0.3-0.1 0.7-0.2q0.3 0 0.7 0q0.4 0 0.7 0.1c0.9 0.1 2.1 0 2.6-0.8c0.3-0.7 0.1-1.5 0.2-2.2q0.1-0.5 0.5-1q0.3-0.4 0.8-0.7q0.4-0.2 1-0.3q0.5 0 1 0.2l0.1 0.2c-0.7 0.1-0.7 1.1-0.2 1.6c0.4 0.4 1.1 0.6 1.6 1.1c0.4 0.4 0.5 1.4-0.1 1.6q0.3-0.1 0.6-0.1q0.2 0 0.5 0.1q0.3 0 0.5 0q0.3 0.1 0.6 0.1q0.2 0.1 0.5 0.2q0.2 0.2 0.4 0.4q0.2 0.2 0.4 0.4q0.1 0.2 0.2 0.5q0.1 0.2 0.1 0.4q0 0.2-0.1 0.4q-0.1 0.2-0.2 0.4q-0.1 0.2-0.3 0.3q0.2-0.1 0.3-0.1q0.2 0 0.4 0q0.1 0 0.3 0q0.2 0 0.3 0.1q-0.1 0-0.2 0.1q-0.1 0-0.1 0.1q-0.1 0.1-0.2 0.1q-0.1 0.1-0.2 0.2q-0.1 0.1-0.1 0.3q-0.1 0.1-0.1 0.3q0 0.2 0 0.3q0.1 0.2 0.1 0.3c0.2 0.3 0.6 0.4 0.6 0.8c0.1 0.2-0.2 0.5-0.2 0.7q0 0.1 0 0.2q0 0.1 0 0.2q0.1 0 0.1 0.1q0.1 0.1 0.1 0.1q0.1 0.1 0.2 0.1q0 0.1 0.1 0.1q0.1 0 0.2 0.1q0 0 0.1 0q0.1 0 0.2 0q0 0 0.1 0.1q0.1 0 0.2 0q0.1 0 0.1 0q-0.1 0.1-0.2 0.1q0 0.1-0.1 0.2q-0.1 0-0.3 0.1q-0.1 0-0.2 0.1q0.4-0.1 0.9-0.1q0.4 0.1 0.8 0.1q0.4 0.1 0.8 0.2q0.4 0.1 0.8 0.2q0.4 0.2 0.7 0.4z" />
	<path id="Layer" class="s4" d="m200.3 301.1q0.1 0.4 0.1 0.8q0 0.5 0 0.9q0 0.4 0 0.9q0 0 0 0.1l-2.4 9.7q-0.1 0.5-0.4 1q-0.3 0.5-0.7 0.8q-0.4 0.4-1 0.6q-0.5 0.2-1 0.2h-23.7c-1.5 0-2.3-1.1-2.6-2.6l-2.4-9.7q0-0.1 0-0.2q0-0.1 0-0.2q0-0.1 0-0.2q0-0.1 0-0.2q-0.1-0.4-0.1-0.8q-0.1-0.4-0.1-0.9q0.1-0.4 0.1-0.8q0.1-0.4 0.2-0.8q0.1-0.2 0.3-0.3q0.2-0.1 0.4-0.1q0.2-0.1 0.4-0.1q0.2 0 0.4 0.1q0.1 0.1 0.2 0.1q0.1 0.1 0.2 0.1q0.1 0 0.2 0.1q0.1 0 0.3 0c0.5 0 0.7-0.6 1.1-0.7c0.6-0.1 1.1 0.3 1.6 0.5q0.3 0 0.5 0.1q0.3 0 0.6 0q0.3 0 0.5-0.1q0.3 0 0.6-0.1l2.4-0.4q0.2-0.1 0.4-0.1q0.2 0 0.4 0q0.2 0 0.4 0q0.2 0 0.3 0.1c0.5 0.2 0.8 0.7 1.3 0.8c1.1 0.1 1.5-1.4 2.5-1.4c0.8 0 1.2 1 2.1 1.1q0.1 0 0.2-0.1q0.2 0 0.3 0q0.1-0.1 0.3-0.1q0.1-0.1 0.2-0.1q0.1-0.1 0.2-0.2q0.2 0 0.3-0.1q0.1 0 0.3 0q0.1-0.1 0.2-0.1c0.4 0 0.7 0.3 0.7 0.5q0-0.1 0.2-0.2q0.1-0.1 0.2-0.1q0.2-0.1 0.3-0.1q0.2 0 0.3 0q0.2 0 0.4 0q0.1 0.1 0.3 0.1q0.2 0.1 0.3 0.2q0.2 0 0.4 0.1q0.1 0.1 0.3 0.2q0.1 0 0.3 0.1q0.2 0 0.4 0q0.1 0 0.3 0c0.8-0.2 1.5-1.1 2.3-0.8c0.5 0.2 0.7 0.8 1 1.1h1c0.4-0.3 0.6-0.8 1.1-0.9c0.6 0 1 0.4 1.6 0.5c0.6 0.1 1.2-0.3 1.9-0.4q0.2 0 0.5 0.1q0.2 0.1 0.4 0.3q0.2 0.1 0.4 0.3q0.1 0.3 0.1 0.5q0.1 0.4 0.2 0.9z" />
	<path id="Layer" class="s5" d="m171.4 299.5l0.3 3.4l0.5 6.2l0.4 6.1c0 0.2-0.2 0.2-0.2 0c-0.1-1.1-0.5-2.3-0.6-3.5c-0.2-2 0-4-0.1-6.1l-0.5-6.1c0-0.2 0.2-0.2 0.2 0z" />
	<path id="Layer" class="s5" d="m175.5 299.7l0.1 3.4l0.2 6.1l0.2 6c0 0.2-0.2 0.2-0.2 0l-0.1-3.4l-0.2-6l-0.2-6.1c0-0.1 0.2-0.1 0.2 0z" />
	<path id="Layer" class="s5" d="m179.3 300q0.1 0 0.1 0q0.1 0 0.1 0q0 0 0 0.1v3.3l-0.1 5.8v5.9q0 0-0.1 0q0 0.1 0 0.1q-0.1 0-0.1-0.1q0 0 0 0v-3.3v-5.9l0.1-5.8q0-0.1 0-0.1z" />
	<path id="Layer" class="s5" d="m182.3 299.8q0.1 0 0.1 0q0.1 0 0.1 0q0 0.1 0 0.1l0.1 3.3l0.1 5.9l0.1 6q0 0 0 0q0 0.1-0.1 0.1q0 0-0.1-0.1q0 0 0 0l-0.1-3.4l-0.1-5.9l-0.1-5.9q0 0 0-0.1z" />
	<path id="Layer" class="s5" d="m186.7 299.6q0.1-0.1 0.1-0.1q0 0 0.1 0.1q0 0 0 0.1l0.1 3.4l0.1 6l0.1 6.1q0 0.1 0 0.1q0 0-0.1 0q0 0 0 0q-0.1 0-0.1-0.1v-3.4l-0.2-6.1l-0.1-6q0-0.1 0-0.1z" />
	<path id="Layer" class="s5" d="m190.5 299.8l0.3 3.5l0.5 6.1l0.4 6.1c0 0.2-0.2 0.2-0.2 0l-0.2-3.4l-0.5-6.1l-0.5-6.2c0-0.1 0.2-0.1 0.2 0z" />
	<path id="Layer" class="s5" d="m194.6 300.6l0.1 3.1l0.3 5.6c0.1 1.9-0.4 3.8-0.3 5.6c0 0.2-0.2 0.2-0.2 0l-0.1-3.1c-0.1-1.9 0.4-3.8 0.3-5.6l-0.3-5.6c0-0.2 0.2-0.2 0.2 0z" />
	<path id="Layer" class="s3" d="m182 285.2c-0.4 0-0.8-0.3-0.8-0.6c0-0.3 0.4-0.6 0.8-0.6c0.5 0 0.8 0.3 0.8 0.6c0 0.3-0.3 0.6-0.8 0.6z" />
	<path id="Layer" class="s1" d="m187.2 286.5c-0.4 0-0.8-0.3-0.8-0.6c0-0.3 0.4-0.6 0.8-0.6c0.5 0 0.8 0.3 0.8 0.6c0 0.3-0.3 0.6-0.8 0.6z" />
	<path id="Layer" class="s6" d="m180 289.2c-0.5 0-0.8-0.2-0.8-0.5c0-0.4 0.3-0.6 0.8-0.6c0.4 0 0.8 0.2 0.8 0.6c0 0.3-0.4 0.5-0.8 0.5z" />
	<path id="Layer" class="s3" d="m186.7 290c-0.3 0-0.5-0.2-0.5-0.4c0-0.2 0.2-0.3 0.5-0.3c0.3 0 0.5 0.1 0.5 0.3c0 0.2-0.2 0.4-0.5 0.4z" />
	<path id="Layer" class="s1" d="m190 290.8c-0.3 0-0.5-0.2-0.5-0.4c0-0.2 0.2-0.3 0.5-0.3c0.3 0 0.5 0.1 0.5 0.3c0 0.2-0.2 0.4-0.5 0.4z" />
	<path id="Layer" class="s6" d="m185.4 292.5c-0.3 0-0.5-0.1-0.5-0.3c0-0.2 0.2-0.4 0.5-0.4c0.3 0 0.5 0.2 0.5 0.4c0 0.2-0.2 0.3-0.5 0.3z" />
	<path id="Layer" class="s3" d="m191.6 292c-0.3 0-0.6-0.2-0.6-0.4c0-0.2 0.3-0.4 0.6-0.4c0.2 0 0.5 0.2 0.5 0.4c0 0.2-0.3 0.4-0.5 0.4z" />
	<path id="Layer" class="s1" d="m194.8 292.8c-0.3 0-0.5-0.2-0.5-0.4c0-0.2 0.2-0.3 0.5-0.3c0.3 0 0.5 0.1 0.5 0.3c0 0.2-0.2 0.4-0.5 0.4z" />
	<path id="Layer" class="s6" d="m190.3 294.5c-0.3 0-0.6-0.1-0.6-0.3c0-0.2 0.3-0.4 0.6-0.4c0.2 0 0.5 0.2 0.5 0.4c0 0.2-0.3 0.3-0.5 0.3z" />
	<path id="Layer" class="s3" d="m178.2 290.1c0 0.2-0.2 0.5-0.4 0.4c-0.2 0-0.3-0.2-0.3-0.5c0.1-0.3 0.3-0.5 0.5-0.5c0.2 0 0.3 0.3 0.2 0.6z" />
	<path id="Layer" class="s1" d="m177 293.2c0 0.3-0.2 0.5-0.4 0.5c-0.2-0.1-0.3-0.3-0.3-0.6c0-0.3 0.2-0.5 0.4-0.5c0.2 0.1 0.3 0.3 0.3 0.6z" />
	<path id="Layer" class="s6" d="m175.9 288.4c0 0.3-0.2 0.5-0.4 0.5c-0.2 0-0.4-0.3-0.3-0.6c0-0.3 0.2-0.5 0.4-0.4c0.2 0 0.3 0.2 0.3 0.5z" />
	<path id="Layer" class="s3" d="m183.9 288.4c-0.1 0.2-0.3 0.5-0.5 0.4c-0.2 0-0.3-0.3-0.3-0.5c0.1-0.3 0.3-0.5 0.5-0.5c0.2 0 0.3 0.3 0.3 0.6z" />
	<path id="Layer" class="s1" d="m182.6 291.5c0 0.3-0.2 0.5-0.4 0.5c-0.2-0.1-0.3-0.3-0.3-0.6c0-0.3 0.2-0.5 0.4-0.5c0.2 0.1 0.4 0.3 0.3 0.6z" />
	<path id="Layer" class="s6" d="m181.5 286.7c0 0.3-0.2 0.5-0.4 0.5c-0.2 0-0.3-0.3-0.3-0.6c0-0.3 0.2-0.5 0.4-0.4c0.2 0 0.3 0.2 0.3 0.5z" />
	<path id="Layer" class="s1" d="m185.4 284.9c-0.1 0.3-0.2 0.5-0.4 0.5c-0.2-0.1-0.4-0.3-0.3-0.6c0-0.3 0.2-0.5 0.4-0.5c0.2 0.1 0.3 0.3 0.3 0.6z" />
	<path id="Layer" class="s6" d="m184.3 280.1c-0.1 0.3-0.3 0.5-0.5 0.5c-0.1 0-0.3-0.3-0.2-0.6c0-0.3 0.2-0.5 0.4-0.4c0.2 0 0.3 0.2 0.3 0.5z" />
	<path id="Layer" class="s3" d="m383 224.1c-4.1 0-7.5-2.4-7.5-5.3c0-2.9 3.4-5.2 7.5-5.2c4.2 0 7.6 2.3 7.6 5.2c0 2.9-3.4 5.3-7.6 5.3z" />
	<path id="Layer" class="s1" d="m431 235.9c-4.2 0-7.6-2.4-7.6-5.3c0-2.9 3.4-5.2 7.6-5.2c4.2 0 7.6 2.3 7.6 5.2c0 2.9-3.4 5.3-7.6 5.3z" />
	<path id="Layer" class="s6" d="m364 261.5c-4.2 0-7.6-2.3-7.6-5.2c0-2.9 3.4-5.3 7.6-5.3c4.2 0 7.5 2.4 7.5 5.3c0 2.9-3.3 5.2-7.5 5.2z" />
	<path id="Layer" class="s3" d="m471.1 286.9c-2.6 0-4.7-1.5-4.7-3.4c0-1.8 2.1-3.3 4.7-3.3c2.7 0 4.8 1.5 4.8 3.3c0 1.9-2.1 3.4-4.8 3.4z" />
	<path id="Layer" class="s1" d="m501.5 294.3c-2.7 0-4.8-1.5-4.8-3.3c0-1.8 2.1-3.3 4.8-3.3c2.6 0 4.7 1.5 4.7 3.3c0 1.8-2.1 3.3-4.7 3.3z" />
	<path id="Layer" class="s3" d="m348 269.3c-0.3 2.6-2.1 4.6-3.9 4.3c-1.8-0.2-3-2.6-2.6-5.2c0.3-2.6 2.1-4.5 3.9-4.3c1.8 0.3 3 2.6 2.6 5.2z" />
	<path id="Layer" class="s1" d="m336.5 298.3c-0.4 2.7-2.1 4.6-3.9 4.3c-1.9-0.2-3-2.5-2.7-5.2c0.4-2.6 2.1-4.5 4-4.2c1.8 0.2 3 2.5 2.6 5.1z" />
	<path id="Layer" class="s6" d="m326.2 254.2c-0.3 2.6-2.1 4.5-3.9 4.2c-1.8-0.2-3-2.5-2.6-5.1c0.3-2.7 2.1-4.6 3.9-4.3c1.8 0.2 3 2.6 2.6 5.2z" />
	<path id="Layer" class="s3" d="m400 253.6c-0.4 2.6-2.2 4.5-4 4.2c-1.8-0.2-3-2.5-2.6-5.1c0.3-2.7 2.1-4.6 3.9-4.3c1.8 0.2 3 2.5 2.7 5.2z" />
	<path id="Layer" class="s6" d="m378.1 238.4c-0.3 2.6-2.1 4.5-3.9 4.3c-1.8-0.3-3-2.6-2.6-5.2c0.3-2.6 2.1-4.5 3.9-4.3c1.8 0.3 3 2.6 2.6 5.2z" />
	<path id="Layer" class="s7" d="m580 493.1c0.5 0 0.9-0.1 1.4-0.4c0.4-0.2 0.7-0.6 0.9-1.1c0.2-0.4 0.2-0.9 0.1-1.4c-0.1-0.5-0.3-0.9-0.7-1.2c-0.1-0.3-0.1-0.4-0.2-0.7c0.5-1.2 1.3-2.2 2.4-2.9c1-0.7 2.2-1.1 3.5-1.1c1.3 0 2.5 0.3 3.6 1c1 0.7 1.9 1.7 2.4 2.9c2.8 6.6 6.4 13.4 4.6 20.7c12-25.4 7.9-56.9-9.8-78.6q-1.9-1-3.5-2.4q-1.6-1.4-2.9-3q-1.2-1.7-2.1-3.6q-0.9-2-1.4-4c2.5 0.8 5.5-1.2 3.7-3.7q-1.2-1.5-2.4-3c9.2-9.7 20.1 5.6 10 18.8q1.2 1.6 2.4 3.2q1.2 1.6 2.2 3.3q1.1 1.7 2.1 3.4q1 1.7 1.9 3.5q-0.3-1.9-0.2-3.8q0-1.8 0.2-3.7q0.3-1.9 0.7-3.7q0.5-1.9 1.2-3.6c1.8-4.5 5.2-8.2 8.2-12c0.8-1 1.9-1.8 3.2-2.2c1.2-0.4 2.6-0.4 3.8-0.1c1.3 0.4 2.4 1.1 3.3 2.2c0.8 1 1.3 2.2 1.5 3.5c-3.4 1.1-3.9 6 0 6.7c-0.3 2.7-0.9 5.4-1.9 8c-0.9 2.5-2.2 5-3.8 7.2c-1.6 2.3-3.4 4.3-5.5 6.1c-2.1 1.8-4.4 3.3-6.8 4.6q1.3 3.8 2.3 7.7q0.9 4 1.4 8q0.6 4 0.7 8.1q0.1 4-0.3 8.1c1.8-12.7 15.3-15.7 24.8-20.8c0.6-0.3 1.3-0.5 2.1-0.5c0.7 0 1.4 0.2 2 0.6c0.6 0.4 1 0.9 1.3 1.6c0.3 0.7 0.4 1.4 0.3 2.1q-0.5 0.2-1 0.4q-0.5 0.2-0.9 0.5q-0.5 0.2-1 0.5q-0.4 0.3-0.9 0.6c-0.5 0.3-0.9 0.9-1.2 1.5c-0.2 0.6-0.3 1.3-0.1 1.9c0.2 0.7 0.5 1.3 1 1.7c0.5 0.4 1.2 0.7 1.8 0.8c-4.8 11.8-17.1 19.7-29.8 19.7q-0.5 2-1 4q-0.6 1.9-1.3 3.8q-0.6 2-1.4 3.9q-0.7 1.9-1.6 3.7h-18.9q-0.1-0.3-0.1-0.6q0.6 0 1.3 0q0.6 0 1.3 0q0.6-0.1 1.3-0.1q0.6-0.1 1.3-0.2c-4.6-5.5-8.2-8.3-5.5-15.9z" />
	<path id="Layer" class="s7" d="m205.3 508.7q0.7 0.1 1.3 0.2q0.7 0.1 1.3 0.1q0.7 0 1.3 0q0.7 0 1.3 0q-0.1 0.3-0.2 0.6h-18.8q-0.9-1.8-1.6-3.7q-0.8-1.9-1.4-3.8q-0.7-2-1.3-3.9q-0.5-2-1-4c-12.7 0.1-25.1-7.9-29.8-19.7c0.6-0.1 1.3-0.4 1.8-0.8c0.5-0.4 0.8-1 1-1.6c0.2-0.7 0.1-1.4-0.1-2c-0.3-0.6-0.7-1.1-1.2-1.5q-0.5-0.3-0.9-0.6q-0.5-0.2-1-0.5q-0.4-0.2-0.9-0.5q-0.5-0.2-1-0.4c-0.1-0.7 0-1.4 0.3-2.1c0.2-0.6 0.7-1.2 1.3-1.6c0.6-0.4 1.3-0.6 2-0.6c0.7 0 1.5 0.2 2.1 0.6c9.4 5 23 8.1 24.8 20.7q-0.4-4-0.3-8.1q0.1-4.1 0.7-8.1q0.5-4 1.4-8q1-3.9 2.3-7.7c-2.4-1.2-4.7-2.8-6.8-4.6c-2.1-1.8-3.9-3.8-5.5-6c-1.6-2.3-2.9-4.7-3.8-7.3c-1-2.6-1.6-5.3-1.9-8c3.9-0.7 3.4-5.6 0-6.7c0.2-1.3 0.7-2.5 1.5-3.5c0.9-1 2-1.8 3.2-2.1c1.3-0.4 2.6-0.4 3.9 0c1.2 0.4 2.3 1.2 3.2 2.2c3 3.8 6.4 7.6 8.2 12q0.7 1.7 1.2 3.6q0.4 1.8 0.7 3.7q0.2 1.9 0.2 3.8q0 1.9-0.2 3.7q0.9-1.7 1.9-3.5q1-1.7 2.1-3.4q1-1.6 2.2-3.3q1.2-1.6 2.4-3.1c-10.1-13.2 0.8-28.6 10-18.8q-1.2 1.4-2.4 2.9c-1.8 2.5 1.2 4.5 3.7 3.7q-0.5 2-1.4 4q-0.9 1.9-2.1 3.6q-1.3 1.7-2.9 3q-1.7 1.4-3.5 2.4c-17.7 21.7-21.8 53.2-9.8 78.6c-1.8-7.3 1.8-14.1 4.6-20.7c0.5-1.2 1.4-2.2 2.4-2.9c1.1-0.7 2.3-1 3.6-1c1.3 0 2.5 0.4 3.5 1.1c1.1 0.7 1.9 1.8 2.4 2.9l-0.2 0.7c-0.4 0.3-0.6 0.7-0.7 1.2c-0.1 0.5-0.1 1 0.1 1.4c0.2 0.5 0.5 0.9 0.9 1.1c0.5 0.3 0.9 0.4 1.4 0.4c2.7 7.6-0.9 10.4-5.5 15.9z" />
	<path id="Layer" class="s8" d="m258.1 272.1l-2-11.6l30.4-13.8l6.6-11.7c-0.4-2.1 0.4-4.2 2-5.5c1.7-1.4 4-1.7 5.9-0.8c1.9 0.9 3.2 2.8 3.3 4.9c0.1 2.1-1 4.1-2.8 5.2l-10.8 16.7z" />
	<path id="Layer" class="s1" d="m248.8 262.6l13.7-7l3.7 13.6l-9.6 7.1l-7.8-13.7z" />
	<path id="Layer" class="s8" d="m218 494.5v-32h12.2l-3.9 32h-8.3z" />
	<path id="Layer" class="s9" d="m243 506.8q0 0.7-0.2 1.3q-0.3 0.7-0.8 1.2q-0.5 0.5-1.1 0.7q-0.7 0.3-1.4 0.3h-15.6l-0.5-1l-2.2-4.6l-0.9 4.6l-0.1 1h-5.9v-1l1.6-18.9l2.1-0.1l8.9-0.5l2.1-0.1v5.6c1.7 1.7 14.7 8.4 14 11.5z" />
	<path id="Layer" class="s8" d="m119.6 464.6l18.5-26.1l10 7l-21.7 23.9l-6.8-4.8z" />
	<path id="Layer" class="s9" d="m133.3 488.5q-0.4 0.5-1 0.9q-0.6 0.4-1.3 0.5q-0.6 0.1-1.3 0q-0.7-0.2-1.3-0.6l-12.8-9l0.2-1.1l0.8-5l-3.3 3.3l-0.7 0.7l-4.8-3.4l0.6-0.8l12.2-14.5l1.7 1.1l7.6 4.7l1.8 1.1l-3.2 4.6c0.3 2.4 7.1 15.3 4.8 17.5z" />
	<path id="Layer" class="s8" d="m206.3 314.4l-19 6c-1.5 1.5-3.8 2.1-5.8 1.4c-2-0.6-3.5-2.4-3.8-4.5c-0.4-2.1 0.5-4.2 2.2-5.5c1.8-1.2 4-1.4 5.9-0.4l13-3.3l21.3-25.8l10.7 5z" />
	<path id="Layer" class="s9" d="m253.7 341.7l-6 68.3l-16.3 60.4l-16.7 1.1l11.2-60.2l-1.1-43.4c0 0-29.2 35.1-35.9 42.1c-6.7 7.1-46.7 48.7-46.7 48.7l-14.5-13.2l42.1-45.3c0 0 37.5-52.1 37.3-52.4c-4.6-7.5 12.9-19 12.9-19z" />
	<path id="Layer" class="s1" d="m239.1 257.4h8.5l9.4 9.4c0 0 5.2 5.4 9 9.6c3.9 4.2-1.6 18.2-1.6 18.2l-9.3 23.4c0 0-0.4 11.3-0.7 26c-0.2 14.7-35.5-3.3-44.2-2.8c-8.7 0.4-0.3-11.8 10.6-23.2c10.8-11.4 4-23.2 4-23.2l-8-10.9l8.4-18l7.3-5.6z" />
	<path id="Layer" class="s8" d="m246.3 225.9c16.5 9.4 3 34.2-13.9 25.4c-16.5-9.4-3-34.3 13.9-25.4z" />
	<path id="Layer" class="s9" d="m255.1 231.1c-1.1 1.5-3.5 0.8-8.3 1.9q0-0.6 0-1.2q0-0.6-0.1-1.2q-0.1-0.6-0.2-1.2q-0.1-0.6-0.2-1.2q-0.2 0.7-0.4 1.4q-0.2 0.7-0.5 1.4q-0.3 0.7-0.6 1.3q-0.4 0.7-0.8 1.3c-4.1 0.4 0.9 12.9-1.2 22.1c-2.7-19.4-8.4-14.3-5.5-10.4c1.8 2.4 0.6 9.8-4.9 6.1c-9.2 4.4-22.2-17.2-7.8-27.4c-0.2-5.4 5.8-6.3 9.6-4.6c9.1-6.8 19.5 1.9 20.9 11.7z" />
	<path id="Layer" class="s9" d="m228.7 221.5c-1.6 13.3-20.1 13.4-24.7 24.8c-3.2 8.3 3.2 18.6-2.2 26.2c-5.2 7.4-23.9 8.1-23.7-3.6c0.7-5 7.9-7.8 7.2-13.3c-3.2-6.7-8.2-12.5-5.3-20.6c9.3-22.2 29 4.6 32.7-18.1c4.5-4.9 12.9 0.2 16 4.6z" />
	<path id="Layer" fill-rule="evenodd" class="s9" d="m230.4 218.6q-0.2 0.3-0.5 0.6q-0.3 0.3-0.6 0.5q-0.3 0.3-0.6 0.5q-0.3 0.3-0.6 0.5c-1.2 0.8-2.1 1-1.9 0.2q-0.2-0.3-0.4-0.5q-0.4-0.4-0.7-0.8q-0.3-0.4-0.6-0.8q-0.3-0.5-0.5-0.9q-0.2-0.5-0.4-1c-1.5-4.4 2.8-6.4 3.8 0c0.3-1.8 1.2-5.5 4-4.8c3.2 0.8 1.4 4.1-1 6.5zm-1.3-5c-0.9 0.8-1.3 3.8-1.5 5.5q0 0.4 0 0.6q-0.1 0.1-0.3 0.2q-0.1 0.1-0.3 0.3q-0.2-0.2-0.4-0.4c0.1 0.5 0.5 0.9 0.9 0.2q0 0 0 0q0 0 0 0q0-0.1 0-0.1q0.1 0 0.1 0q0-0.1 0-0.2q0.5-0.4 1-0.9q0.4-0.3 0.8-0.7q0.4-0.4 0.7-0.7q0.4-0.4 0.7-0.8q0.4-0.4 0.7-0.9c1.8-2-0.6-3.5-2.4-2.1zm-2.5 6.2q0 0 0 0q0 0 0 0q0 0 0 0zm0 0q0.2 0.2 0.4 0.4q0 0 0 0q0 0 0 0q0.2-0.2 0.3-0.3q0.2-0.1 0.3-0.2q0-0.2 0-0.6q0 0 0 0q0 0 0 0q-0.2 0.1-0.3 0.2q-0.2 0.1-0.3 0.2q-0.1 0-0.1 0q-0.2-0.2-0.4-0.4q0 0 0-0.1q0 0 0 0q0.1-0.1 0.1-0.1q0 0 0 0c0.2-8.5-4-5.4-1.4-0.9q0.1 0.2 0.3 0.5q0.1 0.2 0.3 0.4q0.2 0.2 0.4 0.4q0.1 0.2 0.3 0.4q0 0.1 0.1 0.1zm0.7 0.1q0.2-0.1 0.3-0.2q0-0.2 0-0.6q-0.2 0.1-0.3 0.2q-0.2 0.1-0.3 0.2q-0.1 0-0.1 0q0 0 0 0q0 0 0 0q-0.2-0.2-0.4-0.4q0 0 0 0q0 0 0 0q0 0 0 0q0 0 0 0q0 0 0 0q0 0.1 0 0.2q0 0 0 0.1q0 0 0 0q0 0.1 0 0.2q0 0 0 0.1l0.1 0.1q0.2 0.2 0.4 0.4q0.2-0.2 0.3-0.3zm-0.8-0.2q0-0.1 0-0.1q0-0.1 0-0.2q0-0.1 0-0.1q0-0.1 0-0.2q0 0 0 0q0 0.1 0 0.2q0 0 0 0.1q0 0 0 0q0 0.1 0 0.2q0 0 0 0.1zm0 0q0 0 0 0q0 0 0 0z" />
	<path id="Layer" class="s10" d="m575.9 495.9l-8.1 1.8l-11-30.4l12-2.8l7.1 31.4z" />
	<path id="Layer" class="s9" d="m578.1 504.3l-24.9 5.7l-0.1-0.4c-0.3-1.2-0.3-2.6-0.1-3.9c0.2-1.2 0.7-2.5 1.4-3.6c0.7-1.1 1.6-2.1 2.6-2.8c1.1-0.8 2.3-1.3 3.6-1.6l3.8-4.5l9.3 1.5l2.1-0.5z" />
	<path id="Layer" class="s10" d="m681.8 479.9l-7 4.5l-20.7-25l10.4-6.6l17.3 27.1z" />
	<path id="Layer" class="s9" d="m686.7 487l-21.5 13.8l-0.2-0.2c-0.7-1.1-1.2-2.4-1.4-3.7c-0.3-1.3-0.2-2.6 0-3.9c0.3-1.2 0.9-2.4 1.6-3.5c0.7-1.1 1.7-2 2.8-2.7l2-5.5l9.3-1.7l1.9-1.2z" />
	<path id="Layer" class="s9" d="m570.5 344.2l40.9-10.5l25.3 74.2l38.2 58.4l-11.9 7.9l-51.2-56.5l-17.9-38.3l-30.7 37.3l10.7 62.3l-13 3.4l-25.2-65.7l28.7-56.5l6.1-16z" />
	<path id="Layer" class="s1" d="m601.9 269.1c1.2 0.2 2.4 0.6 3.5 1.2c1.2 0.7 2.1 1.5 2.9 2.5c0.8 1 1.4 2.2 1.7 3.4c0.3 1.2 0.4 2.5 0.3 3.8l-3 24.1c0 0 17.2 34.3 17.5 39.1c0.3 4.7-6.2 1.1-7.4 6.1c-1.2 5.1-20.5 0.3-25-0.9c-4.5-1.1-10.6 4.5-21.7 4.7c-11.1 0.3-7.1-27.4-7.1-27.4l-10.5-38.6l-0.2-16.4l21.1-14.8l17.3 2.4l10 10.8q0.3 0 0.6 0z" />
	<path id="Layer" class="s10" d="m670.7 337.2c-0.9 0.2-1.8 0.1-2.6-0.1c-0.9-0.2-1.7-0.6-2.5-1.1c-0.7-0.6-1.2-1.3-1.6-2.1c-0.5-0.8-0.7-1.7-0.7-2.6l-46.2-18.2l8.8-7.2l43.8 19c1.5 0.1 2.9 0.7 4 1.7c1.1 1.1 1.8 2.5 1.9 4c0.2 1.5-0.3 3-1.2 4.2c-0.9 1.2-2.2 2.1-3.7 2.4z" />
	<path id="Layer" class="s1" d="m630.4 304.9c11.2 1.9 21.2 5 26.3 12.7l-10.2 7c0 0-4.4-0.8-9.9-2c-1.1-0.3-3 1.2-4.3 1c-1.2-0.3-1.7-2.4-3-2.7c-2.2-0.5-4.3-1.1-6.2-1.7c-4.4-1.2-7.8-2.6-8.6-3.8c-2.6-3.7-19.1-26.4-18.1-35.4c1-9 8.8-8.9 8.8-8.9z" />
	<path id="Layer" class="s10" d="m490.2 225.2c0.9-1.3 2.1-2.3 3.6-2.7c1.4-0.4 3-0.3 4.4 0.4c1.3 0.7 2.4 1.8 3 3.2l33.3 34.3l-3.7 10.7l-33.4-36.7c-0.8 0.2-1.7 0.3-2.6 0.3c-0.9-0.1-1.8-0.4-2.5-0.9c-0.8-0.5-1.5-1.1-2-1.8c-0.5-0.8-0.8-1.6-0.9-2.5c-0.3-1.5 0-3.1 0.8-4.3z" />
	<path id="Layer" class="s1" d="m574.3 267.3c0 0 2.9 7.4-5.2 11.4c-8 4.1-35.1-3.3-39.5-4.3c-1.4-0.4-3.9-3.1-6.6-6.7c-1.2-1.6-2.5-3.4-3.8-5.3c-0.7-1-2.8-0.8-3.5-1.9c-0.7-1 0-3.3-0.7-4.3c-3-4.7-5.3-8.5-5.3-8.5l2.9-12.1c9 2.2 15.4 10.3 21.2 20.1z" />
	<path id="Layer" class="s10" d="m583 253.2c-9.1 0-16.4-7.4-16.4-16.4c0-9.1 7.3-16.5 16.4-16.5c9.1 0 16.4 7.4 16.4 16.5c0 9-7.3 16.4-16.4 16.4z" />
	<path id="Layer" class="s9" d="m602.7 229.5q0.5 1.1 0.7 2.3q0.1 1.2 0.1 2.4q0 1.2-0.3 2.4q-0.2 1.1-0.6 2.3q-0.3 1.1-0.8 2.2q-0.5 1.1-1 2.2q-0.6 1-1.2 2q-0.2 0.4-0.4 0.7q-0.2 0.3-0.5 0.6q-0.2 0.3-0.5 0.5q-0.3 0.3-0.6 0.5q-0.3 0.2-0.7 0.3q-0.4 0.1-0.8 0q-0.3 0-0.7-0.2q-0.3-0.2-0.6-0.5l-0.4-0.3q0.3-0.1 0.6-0.3q0.2-0.2 0.5-0.4q0.2-0.2 0.4-0.5q0.3-0.2 0.5-0.5q0.2-0.2 0.3-0.5q0.2-0.3 0.2-0.6q0.1-0.3 0.1-0.6q0-0.4-0.1-0.7q-0.1-0.3-0.3-0.5q-0.2-0.3-0.5-0.4q-0.3-0.2-0.6-0.2q-0.3 0-0.6 0c-0.9 0.4-1.5 1.7-2.4 1.5c-0.8-0.2-1-1.2-0.9-2c0-4.1-2-10-3.6-9.8q-0.5 0.1-1.1 0q-0.6 0-1.2-0.1q-0.6 0-1.1-0.2q-0.6-0.1-1.2-0.3q-0.5-0.2-1.1-0.3q-0.6-0.1-1.1-0.2q-0.6-0.1-1.2-0.1q-0.6 0-1.2 0c-1.8 0.3-3.5 1.3-5.3 1.6c-1.4 0.2-2.9-0.1-4.3 0.2c-1.4 0.3-2.8 1.6-2.5 3q-0.8-2-1.1-4.1q-0.3-2.2 0-4.3q0.3-2.1 1.2-4.1q0.8-2 2.2-3.7q0.2-0.3 0.5-0.7q0.4-0.3 0.7-0.6q0.3-0.2 0.7-0.5q0.4-0.2 0.8-0.4q0.4-0.2 0.9-0.2q0.4-0.1 0.8-0.1q0.5 0.1 0.9 0.2q0.4 0.2 0.8 0.5c1.4-1.4 3.3-2.4 5.3-2.8c1.9-0.4 4-0.3 5.9 0.4c1.9 0.6 3.6 1.8 4.9 3.4c1.3 1.5 2.1 3.4 2.4 5.4q1.2-0.1 2.4 0.1q1.2 0.2 2.2 0.7q1.1 0.5 2 1.3q0.9 0.8 1.5 1.9q0.6 1 1 2.1z" />
	<path id="Layer" class="s1" d="m414 221.5c-0.3 2.6-2.1 4.5-3.9 4.2c-1.8-0.2-3-2.5-2.6-5.1c0.3-2.7 2.1-4.6 3.9-4.3c1.8 0.2 3 2.5 2.6 5.2z" />
	<path id="Layer" class="s3" d="m682.6 333.6h-21.7c-0.6 0-3.8-1.7-3.8-3.8v-12.1c-0.1-9.1 29.8-9.7 29.9 0v12.1c0 2.1-2.3 3.8-4.4 3.8z" />
	<path id="Layer" class="s2" d="m684.4 309.9q0.4 0.3 0.6 0.6q0.3 0.3 0.4 0.7q0.1 0.4 0.2 0.9q-0.1 0.3-0.2 0.6q-0.2 0.4-0.4 0.7q-0.2 0.2-0.4 0.5q-0.3 0.2-0.6 0.3q-0.3 0.2-0.7 0.3q-0.3 0.1-0.7 0.2q-0.3 0.1-0.6 0.2q-0.4 0-0.7 0q-2.6 0.4-5.2 0.5q-2.6 0.2-5.2 0.2q-2.7 0-5.3-0.2q-2.6-0.1-5.2-0.5c-0.8-0.1-1.9-0.4-2-1.3q0-0.2 0.1-0.5q0-0.2 0.2-0.4q0.2-0.2 0.4-0.3q0.2-0.1 0.5-0.2q0.3 0 0.5 0q0.3 0 0.5 0.1q0.3 0 0.5 0.1q0.3 0.1 0.5 0.2q-0.2-0.4-0.3-0.7q-0.1-0.4-0.1-0.8q0-0.4 0.2-0.7q0.1-0.4 0.3-0.7q0.2-0.1 0.3-0.3q0.2-0.1 0.4-0.2q0.2-0.1 0.4-0.2q0.2 0 0.4 0q-0.1-0.1-0.3-0.3q-0.1-0.1-0.2-0.3q-0.1-0.1-0.2-0.3q0-0.2 0-0.3q0-0.1-0.1-0.1q0.2 0 0.4 0.1q0.1 0 0.2 0.1q0.1 0 0.2 0q0.2 0 0.3-0.1q0.1 0 0.2-0.1q0-0.1 0.1-0.2q0 0 0-0.1q0-0.1 0-0.2q0 0 0-0.1q-0.1-0.1-0.1-0.1q0-0.1-0.1-0.2q0 0-0.1-0.1q0 0-0.1-0.1q0.2 0.1 0.4 0.1q0.3 0 0.4-0.2q0.1-0.2 0-0.4q-0.1-0.2-0.3-0.3l1.3 0.2c0.2 0 0.4 0 0.5-0.2q0 0 0-0.1q0 0 0-0.1q0 0 0 0q0-0.1-0.1-0.1q0-0.1-0.1-0.1q0 0 0 0q-0.1-0.1-0.1-0.1q-0.1 0-0.1 0l-0.6-0.2q0.2-0.1 0.5-0.1q0.2-0.1 0.4-0.1q0.2-0.1 0.5-0.1q0.2 0 0.4 0q-0.5 0-0.9-0.3q-0.4-0.3-0.6-0.7q-0.2-0.5-0.1-1q0.2-0.5 0.6-0.8q0.3-0.2 0.6-0.3q0.3-0.2 0.7-0.2q0.3-0.1 0.7 0q0.4 0 0.7 0.1c0.9 0.1 2.1 0 2.6-0.8c0.3-0.7 0.1-1.5 0.2-2.2q0.1-0.6 0.5-1q0.3-0.4 0.8-0.7q0.4-0.2 1-0.3q0.5 0 1 0.2l0.1 0.2c-0.6 0.1-0.7 1.1-0.2 1.5c0.4 0.5 1.1 0.7 1.6 1.1c0.4 0.5 0.5 1.5-0.1 1.6q0.3 0 0.6 0q0.2 0 0.5 0q0.3 0.1 0.5 0.1q0.3 0.1 0.6 0.1q0.3 0.1 0.5 0.2q0.2 0.2 0.4 0.3q0.2 0.2 0.4 0.5q0.1 0.2 0.2 0.5q0.1 0.2 0.1 0.4q0 0.2-0.1 0.4q-0.1 0.2-0.2 0.4q-0.1 0.1-0.3 0.3q0.2-0.1 0.3-0.1q0.2 0 0.4 0q0.1 0 0.3 0q0.2 0 0.3 0.1q-0.1 0-0.2 0.1q-0.1 0-0.1 0.1q-0.1 0-0.2 0.1q-0.1 0.1-0.1 0.2q-0.2 0.1-0.2 0.3q-0.1 0.1-0.1 0.3q0 0.1 0 0.3q0.1 0.2 0.1 0.3c0.2 0.3 0.6 0.4 0.6 0.7c0.1 0.3-0.2 0.5-0.2 0.8q0 0.1 0 0.2q0 0.1 0 0.1q0.1 0.1 0.1 0.2q0.1 0.1 0.1 0.1q0.1 0.1 0.2 0.1q0 0 0.1 0.1q0.1 0 0.2 0q0 0.1 0.1 0.1q0.1 0 0.2 0q0.1 0 0.1 0q0.1 0 0.2 0.1q0.1 0 0.1 0q-0.1 0-0.1 0.1q-0.1 0.1-0.2 0.1q-0.1 0.1-0.3 0.1q-0.1 0.1-0.2 0.1q0.4 0 0.9 0q0.4 0 0.8 0.1q0.4 0.1 0.8 0.2q0.4 0.1 0.8 0.2q0.4 0.2 0.7 0.4z" />
	<path id="Layer" class="s4" d="m689 320.5q0.1 0.5 0.1 0.9q0 0.4 0 0.9q0 0.4 0 0.9q0 0 0 0l-2.4 9.8q-0.1 0.5-0.4 1q-0.3 0.5-0.7 0.8q-0.4 0.4-1 0.6q-0.5 0.1-1 0.2h-23.7c-1.5 0-2.3-1.1-2.5-2.6l-2.5-9.8q0-0.1 0-0.1q0-0.1 0-0.2q0-0.1 0-0.2q0-0.1 0-0.2q-0.1-0.4-0.1-0.8q-0.1-0.4 0-0.9q0-0.4 0-0.8q0.1-0.4 0.2-0.9q0.1-0.1 0.3-0.2q0.2-0.1 0.4-0.2q0.2 0 0.4 0q0.2 0 0.4 0.1q0.1 0 0.2 0.1q0.1 0 0.2 0.1q0.1 0 0.2 0q0.1 0.1 0.3 0.1c0.5 0 0.7-0.6 1.1-0.7c0.6-0.2 1.1 0.2 1.6 0.4q0.3 0.1 0.5 0.1q0.3 0.1 0.6 0.1q0.3 0 0.5-0.1q0.3 0 0.6-0.1l2.4-0.4q0.2-0.1 0.4-0.1q0.2 0 0.4 0q0.2 0 0.4 0q0.2 0 0.3 0.1c0.5 0.2 0.8 0.7 1.3 0.7c1.1 0.2 1.5-1.3 2.5-1.3c0.8 0 1.2 1 2.1 1q0.1 0 0.2 0q0.2 0 0.3 0q0.1-0.1 0.3-0.1q0.1-0.1 0.2-0.2q0.1 0 0.2-0.1q0.2-0.1 0.3-0.1q0.1 0 0.3-0.1q0.1 0 0.2 0c0.4 0 0.7 0.3 0.7 0.5q0.1-0.1 0.2-0.2q0.1-0.1 0.2-0.2q0.2 0 0.3 0q0.2-0.1 0.3 0q0.2 0 0.4 0q0.1 0.1 0.3 0.1q0.2 0.1 0.3 0.1q0.2 0.1 0.4 0.2q0.1 0.1 0.3 0.1q0.1 0.1 0.3 0.1q0.2 0.1 0.4 0.1q0.2 0 0.3 0c0.8-0.2 1.5-1.1 2.3-0.8c0.5 0.1 0.7 0.7 1 1h1c0.4-0.2 0.6-0.7 1.1-0.8c0.6-0.1 1 0.4 1.6 0.5c0.6 0.1 1.2-0.4 1.9-0.4q0.2 0 0.5 0.1q0.2 0.1 0.4 0.2q0.2 0.2 0.4 0.4q0.1 0.2 0.2 0.5q0 0.4 0.1 0.8z" />
	<path id="Layer" class="s5" d="m660.1 318.9l0.3 3.5l0.5 6.2l0.4 6.1c0.1 0.1-0.2 0.1-0.2 0c-0.1-1.1-0.5-2.3-0.6-3.5c-0.2-2 0-4.1-0.1-6.1l-0.5-6.2c0-0.1 0.2-0.1 0.2 0z" />
	<path id="Layer" class="s5" d="m664.2 319.2l0.1 3.4l0.2 6.1l0.2 6c0 0.2-0.2 0.1-0.2 0l-0.1-3.4l-0.2-6l-0.2-6.1c0-0.1 0.2-0.1 0.2 0z" />
	<path id="Layer" class="s5" d="m668 319.5q0.1 0 0.1 0q0.1 0 0.1 0q0 0 0 0.1v3.3l-0.1 5.8v5.8q0 0.1-0.1 0.1q0 0 0 0q-0.1 0-0.1 0q0 0 0-0.1v-3.3l0.1-5.8v-5.8q0-0.1 0-0.1z" />
	<path id="Layer" class="s5" d="m671 319.3q0.1 0 0.1 0q0.1 0 0.1 0q0 0 0 0.1l0.1 3.3l0.1 5.9l0.1 5.9q0 0.1 0 0.1q0 0-0.1 0q0 0-0.1 0q0 0 0-0.1l-0.1-3.3l-0.1-5.9l-0.1-5.9q0-0.1 0-0.1z" />
	<path id="Layer" class="s5" d="m675.4 319.1q0.1-0.1 0.1-0.1q0 0 0.1 0.1q0 0 0 0l0.1 3.4l0.1 6.1l0.2 6.1q0 0.1-0.1 0.1q0 0-0.1 0q0 0 0 0q-0.1 0-0.1-0.1v-3.4l-0.2-6.1l-0.1-6.1q0 0 0 0z" />
	<path id="Layer" class="s5" d="m679.3 319.3l0.2 3.5l0.5 6.1l0.4 6.1c0.1 0.1-0.2 0.1-0.2 0l-0.2-3.4l-0.5-6.2l-0.5-6.1c0-0.1 0.2-0.1 0.3 0z" />
	<path id="Layer" class="s5" d="m683.3 320l0.2 3.2l0.2 5.6c0.1 1.9-0.3 3.7-0.3 5.6c0.1 0.1-0.2 0.1-0.2 0l-0.1-3.1c-0.1-1.9 0.4-3.8 0.3-5.7l-0.3-5.6c0-0.1 0.2-0.1 0.2 0z" />
	<path id="Layer" class="s3" d="m670.7 304.7c-0.4 0-0.8-0.3-0.8-0.6c0-0.3 0.4-0.6 0.8-0.6c0.5 0 0.9 0.3 0.9 0.6c0 0.3-0.4 0.6-0.9 0.6z" />
	<path id="Layer" class="s1" d="m675.9 305.9c-0.4 0-0.8-0.2-0.8-0.5c0-0.3 0.4-0.6 0.8-0.6c0.5 0 0.8 0.3 0.8 0.6c0 0.3-0.3 0.5-0.8 0.5z" />
	<path id="Layer" class="s6" d="m668.7 308.7c-0.5 0-0.8-0.3-0.8-0.6c0-0.3 0.3-0.5 0.8-0.5c0.4 0 0.8 0.2 0.8 0.5c0 0.3-0.4 0.6-0.8 0.6z" />
	<path id="Layer" class="s3" d="m675.4 309.5c-0.3 0-0.5-0.2-0.5-0.4c0-0.2 0.2-0.4 0.5-0.4c0.3 0 0.5 0.2 0.5 0.4c0 0.2-0.2 0.4-0.5 0.4z" />
	<path id="Layer" class="s1" d="m678.7 310.3c-0.3 0-0.5-0.2-0.5-0.4c0-0.2 0.2-0.4 0.5-0.4c0.3 0 0.5 0.2 0.5 0.4c0 0.2-0.2 0.4-0.5 0.4z" />
	<path id="Layer" class="s6" d="m674.1 312c-0.3 0-0.5-0.2-0.5-0.3c0-0.2 0.2-0.4 0.5-0.4c0.3 0 0.5 0.2 0.5 0.4c0 0.1-0.2 0.3-0.5 0.3z" />
	<path id="Layer" class="s3" d="m680.3 311.4c-0.3 0-0.6-0.1-0.6-0.3c0-0.2 0.3-0.4 0.6-0.4c0.2 0 0.5 0.2 0.5 0.4c0 0.2-0.3 0.3-0.5 0.3z" />
	<path id="Layer" class="s1" d="m683.5 312.2c-0.2 0-0.5-0.1-0.5-0.3c0-0.2 0.3-0.4 0.5-0.4c0.3 0 0.6 0.2 0.6 0.4c0 0.2-0.3 0.3-0.6 0.3z" />
	<path id="Layer" class="s6" d="m679 314c-0.3 0-0.6-0.2-0.6-0.4c0-0.2 0.3-0.3 0.6-0.3c0.2 0 0.5 0.1 0.5 0.3c0 0.2-0.3 0.4-0.5 0.4z" />
	<path id="Layer" class="s3" d="m667 309.5c-0.1 0.3-0.3 0.5-0.5 0.5c-0.2 0-0.3-0.3-0.3-0.6c0.1-0.2 0.3-0.4 0.5-0.4c0.2 0 0.3 0.3 0.3 0.5z" />
	<path id="Layer" class="s1" d="m665.7 312.7c0 0.3-0.2 0.5-0.4 0.4c-0.2 0-0.3-0.2-0.3-0.5c0-0.3 0.2-0.5 0.4-0.5c0.2 0 0.3 0.3 0.3 0.6z" />
	<path id="Layer" class="s6" d="m664.6 307.9c0 0.3-0.2 0.5-0.4 0.5c-0.2-0.1-0.4-0.3-0.3-0.6c0-0.3 0.2-0.5 0.4-0.5c0.2 0.1 0.3 0.3 0.3 0.6z" />
	<path id="Layer" class="s3" d="m672.6 307.8c-0.1 0.3-0.3 0.5-0.5 0.5c-0.2 0-0.3-0.3-0.2-0.6c0-0.2 0.2-0.4 0.4-0.4c0.2 0 0.3 0.3 0.3 0.5z" />
	<path id="Layer" class="s1" d="m671.3 311c0 0.3-0.2 0.5-0.4 0.4c-0.2 0-0.3-0.2-0.3-0.5c0-0.3 0.2-0.5 0.4-0.5c0.2 0 0.4 0.3 0.3 0.6z" />
	<path id="Layer" class="s6" d="m670.2 306.2c0 0.3-0.2 0.5-0.4 0.5c-0.2-0.1-0.3-0.3-0.3-0.6c0-0.3 0.2-0.5 0.4-0.5c0.2 0.1 0.3 0.3 0.3 0.6z" />
	<path id="Layer" class="s1" d="m674.1 304.4c-0.1 0.3-0.2 0.5-0.4 0.4c-0.2 0-0.4-0.2-0.3-0.5c0-0.3 0.2-0.5 0.4-0.5c0.2 0 0.3 0.3 0.3 0.6z" />
	<path id="Layer" class="s6" d="m673 299.6c-0.1 0.3-0.3 0.5-0.4 0.5c-0.2-0.1-0.4-0.3-0.3-0.6c0-0.3 0.2-0.5 0.4-0.5c0.2 0.1 0.3 0.3 0.3 0.6z" />
	<path id="Layer" class="s3" d="m320.3 392.9c-10.6 0-20.1-6.4-24.2-16.1c-4-9.8-1.8-21.1 5.7-28.6c7.5-7.4 18.7-9.7 28.5-5.6c9.8 4 16.2 13.6 16.2 24.1c0 3.5-0.7 6.9-2 10.1c-1.3 3.1-3.3 6-5.7 8.4c-2.4 2.5-5.3 4.4-8.5 5.7c-3.2 1.3-6.6 2-10 2z" />
	<path id="Layer" class="s11" d="m332.5 364.9c0.4 0.5 0.7 1.2 0.7 1.8c0 0.7-0.3 1.4-0.7 1.9c-0.5 0.5-1.2 0.7-1.9 0.7h-7.7v7.8c0 0.7-0.3 1.3-0.8 1.8c-0.4 0.5-1.1 0.7-1.8 0.7c-0.7 0-1.3-0.2-1.8-0.7c-0.5-0.5-0.8-1.1-0.8-1.8v-7.8h-7.7c-0.7 0-1.4-0.2-1.8-0.7c-0.5-0.5-0.8-1.2-0.8-1.9c0-0.6 0.3-1.3 0.8-1.8c0.4-0.5 1.1-0.7 1.8-0.7h7.7v-7.8c0-0.7 0.3-1.3 0.8-1.8c0.5-0.5 1.1-0.8 1.8-0.8c0.7 0 1.4 0.3 1.8 0.8c0.5 0.5 0.8 1.1 0.8 1.8v7.8h7.7c0.7 0 1.4 0.2 1.9 0.7z" />
	<path id="Layer" class="s3" d="m396.9 392.9c-10.6 0-20.2-6.4-24.2-16.1c-4.1-9.8-1.8-21.1 5.7-28.6c7.4-7.4 18.7-9.7 28.5-5.6c9.7 4 16.1 13.6 16.1 24.1c0 3.5-0.7 6.9-2 10.1c-1.3 3.1-3.2 6-5.6 8.4c-2.5 2.5-5.4 4.4-8.5 5.7c-3.2 1.3-6.6 2-10 2z" />
	<path id="Layer" class="s11" d="m409 364.9c0.5 0.5 0.8 1.2 0.8 1.8c0 0.7-0.3 1.4-0.8 1.9c-0.5 0.5-1.1 0.7-1.8 0.7h-20.7c-0.6 0-1.3-0.2-1.8-0.7c-0.5-0.5-0.7-1.2-0.7-1.9c0-0.6 0.2-1.3 0.7-1.8c0.5-0.5 1.2-0.7 1.8-0.7h20.7c0.7 0 1.3 0.2 1.8 0.7z" />
	<path id="Layer" class="s2" d="m473.4 392.9c-10.6 0-20.1-6.4-24.2-16.1c-4-9.8-1.8-21.1 5.7-28.6c7.5-7.4 18.7-9.7 28.5-5.6c9.8 4 16.2 13.6 16.2 24.1c0 3.5-0.7 6.9-2 10.1c-1.3 3.1-3.3 6-5.7 8.4c-2.4 2.5-5.3 4.4-8.5 5.7c-3.2 1.3-6.6 2-10 2z" />
	<path id="Layer" class="s11" d="m488.4 366.2q0.1 0.3 0.1 0.7q0 0.4-0.1 0.8q-0.1 0.3-0.3 0.6l-7.4 10.9c-0.3 0.4-0.8 0.8-1.4 0.9c-0.6 0.1-1.2 0-1.6-0.4c-0.5-0.3-0.9-0.8-1-1.4c-0.1-0.6 0.1-1.1 0.4-1.6l5-7.4h-19c-0.7 0-1.4-0.2-1.8-0.7c-0.5-0.5-0.8-1.2-0.8-1.9c0-0.6 0.3-1.3 0.8-1.8c0.4-0.5 1.1-0.7 1.8-0.7h18.8l-4.8-7c-0.4-0.5-0.5-1.1-0.4-1.7c0.1-0.6 0.5-1.1 1-1.4c0.4-0.3 1-0.4 1.6-0.3c0.6 0.1 1.1 0.4 1.4 0.9l7.4 10.8q0.2 0.3 0.3 0.7z" />
	<path id="Layer" class="s2" d="m244.3 88.1c0-2.6 2.1-4.7 4.6-4.7h34.5c2.6 0 4.6 2.1 4.6 4.7c0 2.6-2 4.7-4.6 4.7h-34.5c-2.5 0-4.6-2.1-4.6-4.7z" />
	<path id="Layer" class="s3" d="m222 106.8c0-2.6 2.1-4.6 4.7-4.6h78.9c2.6 0 4.7 2 4.7 4.6c0 2.6-2.1 4.7-4.7 4.7h-78.9c-2.6 0-4.7-2.1-4.7-4.7z" />
	<path id="Layer" class="s3" d="m222 125.6c0-2.6 2.1-4.7 4.7-4.7h78.9c2.6 0 4.7 2.1 4.7 4.7c0 2.5-2.1 4.6-4.7 4.6h-78.9c-2.6 0-4.7-2.1-4.7-4.6z" />
	<path id="Layer" class="s3" d="m300.7 221.4h-2v-75h-142.6v-2h144.6v77z" />
	<path id="Layer" class="s3" d="m133.8 167.3c-15.4 0-27.8-12.4-27.8-27.8c0-15.3 12.4-27.7 27.8-27.7c15.4 0 27.8 12.4 27.8 27.7c0 15.4-12.4 27.8-27.8 27.8z" />
	<path id="Layer" class="s11" d="m130 154q-0.4 0-0.7-0.1q-0.4-0.1-0.7-0.2q-0.3-0.2-0.6-0.4q-0.3-0.2-0.5-0.5l-7.6-10.1c-0.4-0.7-0.7-1.5-0.5-2.3c0.1-0.8 0.5-1.6 1.2-2.1c0.6-0.5 1.4-0.7 2.3-0.6c0.8 0.2 1.5 0.6 2 1.3l5 6.6l12.7-19.1c0.4-0.7 1.1-1.2 2-1.4c0.8-0.1 1.6 0 2.3 0.5c0.7 0.5 1.1 1.2 1.3 2c0.2 0.8 0 1.6-0.5 2.3l-15.1 22.7q-0.2 0.3-0.5 0.6q-0.3 0.2-0.6 0.4q-0.3 0.2-0.7 0.3q-0.3 0.1-0.7 0.1q-0.1 0-0.1 0z" />
	<path id="Layer" class="s3" d="m489.2 217.4h-2v-77h144.6v2h-142.6v75z" />
	<path id="Layer" class="s3" d="m654 163.4c-15.4 0-27.8-12.4-27.8-27.8c0-15.4 12.4-27.8 27.8-27.8c15.4 0 27.8 12.4 27.8 27.8c0 15.4-12.4 27.8-27.8 27.8z" />
	<path id="Layer" class="s11" d="m650.2 150q-0.3 0-0.7 0q-0.3-0.1-0.7-0.3q-0.3-0.1-0.6-0.4q-0.2-0.2-0.5-0.5l-7.5-10.1c-0.5-0.6-0.7-1.5-0.6-2.3c0.1-0.8 0.5-1.5 1.2-2c0.6-0.5 1.5-0.7 2.3-0.6c0.8 0.1 1.5 0.5 2 1.2l5 6.6l12.7-19.1c0.5-0.7 1.2-1.1 2-1.3c0.8-0.2 1.6 0 2.3 0.4c0.7 0.5 1.2 1.2 1.3 2c0.2 0.8 0 1.7-0.4 2.3l-15.2 22.8q-0.2 0.3-0.5 0.5q-0.3 0.3-0.6 0.5q-0.3 0.1-0.7 0.2q-0.3 0.1-0.7 0.1q0 0-0.1 0z" />
	<path id="Layer" class="s3" d="m308.7 230.3h-21.7c-0.6 0-3.8-1.7-3.8-3.8v-12.1c-0.2-9.1 29.7-9.7 29.9 0v12.1c0 2.1-2.3 3.8-4.4 3.8z" />
	<path id="Layer" class="s2" d="m310.5 206.6q0.4 0.3 0.6 0.6q0.3 0.4 0.4 0.8q0.1 0.4 0.1 0.8q0 0.3-0.1 0.7q-0.2 0.3-0.4 0.6q-0.2 0.3-0.4 0.5q-0.3 0.2-0.6 0.4q-0.4 0.1-0.7 0.2q-0.3 0.1-0.7 0.2q-0.3 0.1-0.7 0.2q-0.3 0-0.7 0q-2.5 0.4-5.1 0.5q-2.6 0.2-5.3 0.2q-2.6 0-5.2-0.2q-2.6-0.1-5.2-0.4c-0.8-0.2-1.9-0.5-2-1.4q0-0.2 0-0.5q0.1-0.2 0.3-0.4q0.2-0.2 0.4-0.3q0.2-0.1 0.5-0.2q0.3 0 0.5 0q0.3 0 0.5 0.1q0.3 0 0.5 0.1q0.3 0.1 0.5 0.2q-0.2-0.3-0.3-0.7q-0.1-0.4-0.1-0.8q0-0.3 0.1-0.7q0.2-0.4 0.4-0.7q0.2-0.1 0.3-0.2q0.2-0.2 0.4-0.3q0.2-0.1 0.4-0.1q0.2-0.1 0.4-0.1q-0.2-0.1-0.3-0.3q-0.1-0.1-0.2-0.2q-0.1-0.2-0.2-0.4q0-0.1-0.1-0.3q0-0.1 0-0.1q0.2 0 0.4 0.1q0.1 0.1 0.2 0.1q0.1 0 0.2 0q0.2 0 0.3-0.1q0.1 0 0.2-0.1q0-0.1 0.1-0.2q0 0 0-0.1q0-0.1 0-0.1q0-0.1-0.1-0.2q0-0.1 0-0.1q0-0.1-0.1-0.2q0 0-0.1-0.1q0 0-0.1-0.1q0.2 0.2 0.4 0.1q0.3 0 0.4-0.2q0.1-0.2 0-0.4q-0.1-0.2-0.3-0.3l1.3 0.2c0.2 0 0.4 0 0.5-0.1q0-0.1 0-0.1q0-0.1 0-0.1q0-0.1 0-0.1q0-0.1-0.1-0.1q0 0-0.1-0.1q0 0 0 0q-0.1-0.1-0.1-0.1q-0.1 0-0.1 0l-0.6-0.2q0.2-0.1 0.4-0.1q0.3-0.1 0.5-0.1q0.2 0 0.5-0.1q0.2 0 0.4 0q-0.5 0-0.9-0.3q-0.4-0.2-0.6-0.7q-0.2-0.5-0.1-1q0.2-0.5 0.6-0.8q0.3-0.2 0.6-0.3q0.3-0.1 0.7-0.2q0.3 0 0.7 0q0.3 0 0.7 0.1c0.9 0.1 2.1 0 2.6-0.8c0.3-0.7 0.1-1.5 0.2-2.2q0.1-0.6 0.5-1q0.3-0.4 0.8-0.7q0.4-0.2 1-0.3q0.5 0 1 0.2l0.1 0.2c-0.7 0.1-0.7 1.1-0.2 1.6c0.4 0.4 1.1 0.6 1.6 1.1c0.4 0.4 0.5 1.4-0.1 1.6q0.3-0.1 0.5-0.1q0.3 0 0.6 0.1q0.3 0 0.5 0q0.3 0.1 0.6 0.1q0.2 0.1 0.5 0.2q0.2 0.2 0.4 0.4q0.2 0.1 0.4 0.4q0.1 0.2 0.2 0.5q0.1 0.2 0.1 0.4q0 0.2-0.1 0.4q-0.1 0.2-0.2 0.4q-0.1 0.2-0.3 0.3q0.2-0.1 0.3-0.1q0.2 0 0.4 0q0.1 0 0.3 0q0.2 0 0.3 0.1q-0.1 0-0.2 0.1q-0.1 0-0.1 0.1q-0.1 0.1-0.2 0.1q-0.1 0.1-0.2 0.2q-0.1 0.1-0.1 0.3q-0.1 0.1-0.1 0.3q0 0.2 0 0.3q0.1 0.2 0.1 0.3c0.2 0.3 0.6 0.4 0.6 0.8c0.1 0.2-0.2 0.5-0.2 0.7q0 0.1 0 0.2q0 0.1 0 0.2q0 0 0.1 0.1q0.1 0.1 0.1 0.1q0.1 0.1 0.2 0.1q0 0.1 0.1 0.1q0.1 0 0.2 0.1q0 0 0.1 0q0.1 0 0.2 0q0 0 0.1 0q0.1 0.1 0.2 0.1q0 0 0.1 0q-0.1 0.1-0.2 0.1q-0.1 0.1-0.2 0.2q-0.1 0-0.2 0.1q-0.1 0-0.2 0q0.4 0 0.9 0q0.4 0.1 0.8 0.1q0.4 0.1 0.8 0.2q0.4 0.1 0.8 0.2q0.4 0.2 0.7 0.4z" />
	<path id="Layer" class="s4" d="m315.1 217.3q0.1 0.4 0.1 0.8q0 0.5 0 0.9q0 0.4 0 0.9q0 0 0 0l-2.4 9.8q-0.1 0.5-0.4 1q-0.3 0.5-0.7 0.8q-0.5 0.4-1 0.6q-0.5 0.2-1 0.2h-23.7c-1.5 0-2.3-1.1-2.6-2.6l-2.4-9.8q0 0 0-0.1q0-0.1 0-0.2q0-0.1 0-0.2q-0.1-0.1 0-0.2q-0.1-0.4-0.1-0.8q-0.1-0.4-0.1-0.9q0.1-0.4 0.1-0.8q0.1-0.4 0.2-0.8q0.1-0.2 0.3-0.3q0.2-0.1 0.4-0.2q0.2 0 0.4 0q0.2 0 0.4 0.1q0.1 0 0.2 0.1q0.1 0 0.2 0.1q0.1 0 0.2 0q0.1 0.1 0.3 0.1c0.4 0 0.7-0.6 1.1-0.7c0.6-0.1 1.1 0.3 1.6 0.4q0.3 0.1 0.5 0.1q0.3 0.1 0.6 0.1q0.3 0 0.5-0.1q0.3 0 0.6-0.1l2.4-0.4q0.2-0.1 0.4-0.1q0.2 0 0.4 0q0.2 0 0.4 0q0.2 0 0.3 0.1c0.5 0.2 0.8 0.7 1.3 0.7c1.1 0.2 1.5-1.3 2.5-1.3c0.8 0 1.2 1 2 1q0.2 0 0.3 0q0.2 0 0.3 0q0.1-0.1 0.2-0.1q0.2-0.1 0.3-0.2q0.1 0 0.2-0.1q0.2 0 0.3-0.1q0.1 0 0.3 0q0.1-0.1 0.2-0.1c0.4 0 0.7 0.3 0.7 0.5q0-0.1 0.2-0.2q0.1-0.1 0.2-0.2q0.2 0 0.3 0q0.2-0.1 0.3 0q0.2 0 0.4 0q0.1 0.1 0.3 0.1q0.2 0.1 0.3 0.2q0.2 0 0.3 0.1q0.2 0.1 0.4 0.2q0.1 0 0.3 0q0.2 0.1 0.4 0.1q0.1 0 0.3 0c0.8-0.2 1.5-1.1 2.2-0.8c0.6 0.2 0.7 0.8 1.1 1h1c0.4-0.2 0.6-0.7 1.1-0.8c0.6 0 1 0.4 1.6 0.5c0.6 0.1 1.2-0.4 1.9-0.4q0.2 0 0.5 0.1q0.2 0.1 0.4 0.3q0.2 0.1 0.3 0.3q0.2 0.2 0.2 0.5q0.1 0.4 0.2 0.9z" />
	<path id="Layer" class="s5" d="m286.2 215.7l0.3 3.4l0.5 6.2l0.4 6.1c0 0.2-0.2 0.2-0.2 0c-0.1-1.1-0.5-2.3-0.6-3.5c-0.2-2 0-4-0.1-6.1l-0.5-6.1c0-0.2 0.2-0.2 0.2 0z" />
	<path id="Layer" class="s5" d="m290.3 215.9l0.1 3.4l0.2 6.1l0.2 6c0 0.2-0.2 0.2-0.2 0l-0.1-3.4l-0.2-6l-0.2-6.1c0-0.1 0.2-0.1 0.2 0z" />
	<path id="Layer" class="s5" d="m294.1 216.2q0.1 0 0.1 0q0 0 0.1 0q0 0 0 0.1v3.3l-0.1 5.8v5.8q0 0.1-0.1 0.1q0 0 0 0q-0.1 0-0.1 0q0 0 0-0.1v-3.3v-5.8l0.1-5.8q0-0.1 0-0.1z" />
	<path id="Layer" class="s5" d="m297.1 216q0.1 0 0.1 0q0.1 0 0.1 0q0 0 0 0.1l0.1 3.3l0.1 5.9l0.1 5.9q0 0.1 0 0.1q0 0-0.1 0q0 0-0.1 0q0 0 0-0.1l-0.1-3.3l-0.1-5.9l-0.1-5.9q0-0.1 0-0.1z" />
	<path id="Layer" class="s5" d="m301.5 215.8q0.1-0.1 0.1-0.1q0 0 0.1 0.1q0 0 0 0l0.1 3.4l0.1 6.1l0.1 6.1q0 0.1 0 0.1q0 0-0.1 0q0 0 0 0q-0.1 0-0.1-0.1v-3.4l-0.2-6.1l-0.1-6.1q0 0 0 0z" />
	<path id="Layer" class="s5" d="m305.3 216l0.3 3.5l0.5 6.1l0.4 6.1c0 0.2-0.2 0.2-0.2 0l-0.2-3.4l-0.5-6.1l-0.5-6.2c0-0.1 0.2-0.1 0.2 0z" />
	<path id="Layer" class="s5" d="m309.4 216.7l0.1 3.2l0.3 5.6c0.1 1.9-0.4 3.7-0.3 5.6c0 0.2-0.2 0.2-0.2 0l-0.1-3.1c-0.1-1.9 0.3-3.8 0.3-5.6l-0.3-5.7c0-0.1 0.2-0.1 0.2 0z" />
	<path id="Layer" class="s3" d="m296.8 201.4c-0.4 0-0.8-0.3-0.8-0.6c0-0.3 0.4-0.6 0.8-0.6c0.5 0 0.8 0.3 0.8 0.6c0 0.3-0.3 0.6-0.8 0.6z" />
	<path id="Layer" class="s1" d="m302 202.6c-0.4 0-0.8-0.2-0.8-0.5c0-0.3 0.4-0.6 0.8-0.6c0.5 0 0.8 0.3 0.8 0.6c0 0.3-0.3 0.5-0.8 0.5z" />
	<path id="Layer" class="s6" d="m294.8 205.4c-0.5 0-0.9-0.2-0.9-0.6c0-0.3 0.4-0.5 0.9-0.5c0.4 0 0.8 0.2 0.8 0.5c0 0.4-0.4 0.6-0.8 0.6z" />
	<path id="Layer" class="s3" d="m301.5 206.2c-0.3 0-0.5-0.2-0.5-0.4c0-0.2 0.2-0.4 0.5-0.4c0.3 0 0.5 0.2 0.5 0.4c0 0.2-0.2 0.4-0.5 0.4z" />
	<path id="Layer" class="s1" d="m304.8 207c-0.3 0-0.5-0.2-0.5-0.4c0-0.2 0.2-0.3 0.5-0.3c0.3 0 0.5 0.1 0.5 0.3c0 0.2-0.2 0.4-0.5 0.4z" />
	<path id="Layer" class="s6" d="m300.2 208.7c-0.3 0-0.5-0.1-0.5-0.3c0-0.2 0.2-0.4 0.5-0.4c0.3 0 0.5 0.2 0.5 0.4c0 0.2-0.2 0.3-0.5 0.3z" />
	<path id="Layer" class="s3" d="m306.4 208.2c-0.3 0-0.6-0.2-0.6-0.4c0-0.2 0.3-0.4 0.6-0.4c0.2 0 0.5 0.2 0.5 0.4c0 0.2-0.3 0.4-0.5 0.4z" />
	<path id="Layer" class="s1" d="m309.6 209c-0.3 0-0.5-0.2-0.5-0.4c0-0.2 0.2-0.4 0.5-0.4c0.3 0 0.5 0.2 0.5 0.4c0 0.2-0.2 0.4-0.5 0.4z" />
	<path id="Layer" class="s6" d="m305 210.7c-0.2 0-0.5-0.2-0.5-0.3c0-0.2 0.3-0.4 0.5-0.4c0.3 0 0.6 0.2 0.6 0.4c0 0.1-0.3 0.3-0.6 0.3z" />
	<path id="Layer" class="s3" d="m293 206.3c0 0.2-0.2 0.4-0.4 0.4c-0.2 0-0.3-0.3-0.3-0.5c0.1-0.3 0.3-0.5 0.5-0.5c0.2 0 0.3 0.3 0.2 0.6z" />
	<path id="Layer" class="s1" d="m291.8 209.4c0 0.3-0.2 0.5-0.4 0.5c-0.2-0.1-0.4-0.3-0.3-0.6c0-0.3 0.2-0.5 0.4-0.5c0.2 0.1 0.3 0.3 0.3 0.6z" />
	<path id="Layer" class="s6" d="m290.7 204.6c-0.1 0.3-0.2 0.5-0.4 0.5c-0.2 0-0.4-0.3-0.3-0.6c0-0.3 0.2-0.5 0.4-0.4c0.2 0 0.3 0.2 0.3 0.5z" />
	<path id="Layer" class="s3" d="m298.7 204.6c-0.1 0.2-0.3 0.4-0.5 0.4c-0.2 0-0.3-0.3-0.3-0.5c0.1-0.3 0.3-0.5 0.5-0.5c0.2 0 0.3 0.3 0.3 0.6z" />
	<path id="Layer" class="s1" d="m297.4 207.7c0 0.3-0.2 0.5-0.4 0.5c-0.2-0.1-0.3-0.3-0.3-0.6c0-0.3 0.2-0.5 0.4-0.5c0.2 0.1 0.3 0.3 0.3 0.6z" />
	<path id="Layer" class="s6" d="m296.3 202.9c0 0.3-0.2 0.5-0.4 0.5c-0.2-0.1-0.4-0.3-0.3-0.6c0-0.3 0.2-0.5 0.4-0.4c0.2 0 0.3 0.2 0.3 0.5z" />
	<path id="Layer" class="s1" d="m300.2 201.1c-0.1 0.3-0.3 0.5-0.5 0.4c-0.1 0-0.3-0.2-0.2-0.5c0-0.3 0.2-0.5 0.4-0.5c0.2 0 0.3 0.3 0.3 0.6z" />
	<path id="Layer" class="s6" d="m299.1 196.3c-0.1 0.3-0.3 0.5-0.5 0.5c-0.2-0.1-0.3-0.3-0.2-0.6c0-0.3 0.2-0.5 0.4-0.5c0.2 0.1 0.3 0.3 0.3 0.6z" />
	<path id="Layer" class="s3" d="m500.1 226.1h-21.7c-0.6 0-3.8-1.7-3.8-3.8v-12.1c-0.1-9.1 29.8-9.7 29.9 0v12.1c0 2.1-2.3 3.8-4.4 3.8z" />
	<path id="Layer" class="s2" d="m502 202.4q0.3 0.3 0.5 0.6q0.3 0.3 0.4 0.7q0.1 0.4 0.2 0.9q-0.1 0.3-0.2 0.6q-0.1 0.4-0.4 0.7q-0.2 0.2-0.4 0.5q-0.3 0.2-0.6 0.3q-0.3 0.2-0.7 0.3q-0.3 0.1-0.6 0.2q-0.4 0.1-0.7 0.2q-0.4 0-0.7 0q-2.6 0.4-5.2 0.5q-2.6 0.2-5.2 0.2q-2.7 0-5.3-0.2q-2.6-0.1-5.1-0.5c-0.9-0.1-2-0.4-2.1-1.3q0-0.2 0.1-0.5q0.1-0.2 0.2-0.4q0.2-0.2 0.4-0.3q0.3-0.2 0.5-0.2q0.3 0 0.5 0q0.3 0 0.5 0.1q0.3 0 0.5 0.1q0.3 0 0.5 0.2q-0.2-0.4-0.3-0.7q-0.1-0.4-0.1-0.8q0-0.4 0.2-0.7q0.1-0.4 0.3-0.7q0.2-0.1 0.3-0.3q0.2-0.1 0.4-0.2q0.2-0.1 0.4-0.2q0.2 0 0.4 0q-0.1-0.1-0.3-0.3q-0.1-0.1-0.2-0.3q-0.1-0.1-0.1-0.3q-0.1-0.2-0.1-0.3q0-0.1 0-0.1q0.1 0 0.3 0.1q0.1 0 0.2 0.1q0.1 0 0.3 0q0.1 0 0.2-0.1q0.1-0.1 0.2-0.1q0-0.1 0.1-0.2q0 0 0-0.1q0-0.1 0-0.2q0 0 0-0.1q-0.1-0.1-0.1-0.1q0-0.1-0.1-0.2q0 0-0.1-0.1q0-0.1 0-0.1q0.1 0.1 0.3 0.1q0.3 0 0.4-0.2q0.1-0.2 0-0.4q-0.1-0.2-0.3-0.3l1.3 0.2c0.2 0 0.4 0 0.5-0.2q0 0 0-0.1q0 0 0-0.1q0 0 0-0.1q0 0-0.1 0q0-0.1 0-0.1q-0.1 0-0.1 0q-0.1-0.1-0.1-0.1q-0.1 0-0.1 0l-0.6-0.2q0.2-0.1 0.5-0.2q0.2 0 0.4 0q0.2-0.1 0.5-0.1q0.2 0 0.4 0q-0.5 0-0.9-0.3q-0.4-0.3-0.6-0.7q-0.2-0.5-0.1-1q0.2-0.5 0.6-0.9q0.3-0.1 0.6-0.2q0.3-0.2 0.7-0.2q0.4-0.1 0.7 0q0.4 0 0.7 0.1c1 0.1 2.1 0 2.6-0.9c0.3-0.6 0.1-1.4 0.2-2.1q0.1-0.6 0.5-1q0.3-0.4 0.8-0.7q0.4-0.3 1-0.3q0.5 0 1 0.2l0.1 0.2c-0.6 0.1-0.7 1.1-0.2 1.5c0.4 0.5 1.1 0.7 1.6 1.1c0.4 0.5 0.5 1.5-0.1 1.6q0.3 0 0.6 0q0.2 0 0.5 0q0.3 0.1 0.6 0.1q0.2 0.1 0.5 0.1q0.3 0.1 0.5 0.2q0.2 0.2 0.4 0.3q0.2 0.2 0.4 0.5q0.1 0.2 0.2 0.4q0.1 0.3 0.1 0.5q0 0.2-0.1 0.4q-0.1 0.2-0.2 0.4q-0.1 0.1-0.3 0.3q0.2-0.1 0.3-0.1q0.2 0 0.4 0q0.1 0 0.3 0q0.2 0 0.3 0q-0.1 0.1-0.2 0.2q0 0-0.1 0.1q-0.1 0-0.2 0.1q-0.1 0.1-0.1 0.2q-0.2 0.1-0.2 0.3q-0.1 0.1-0.1 0.3q0 0.1 0 0.3q0.1 0.2 0.2 0.3c0.2 0.3 0.5 0.4 0.5 0.7c0.1 0.3-0.2 0.5-0.2 0.8q0 0.1 0 0.2q0 0.1 0 0.1q0.1 0.1 0.1 0.2q0.1 0.1 0.1 0.1q0.1 0.1 0.2 0.1q0 0 0.1 0.1q0.1 0 0.2 0q0.1 0.1 0.1 0.1q0.1 0 0.2 0q0.1 0 0.1 0q0.1 0 0.2 0q0.1 0.1 0.1 0.1q0 0-0.1 0.1q-0.1 0.1-0.2 0.1q-0.1 0.1-0.2 0.1q-0.2 0.1-0.3 0.1q0.5 0 0.9 0q0.4 0 0.8 0.1q0.4 0.1 0.8 0.2q0.4 0.1 0.8 0.2q0.4 0.1 0.8 0.4z" />
	<path id="Layer" class="s4" d="m506.5 213q0.1 0.5 0.1 0.9q0 0.4 0 0.9q0.1 0.4 0 0.9q0 0 0 0l-2.4 9.8q-0.1 0.5-0.4 1q-0.3 0.5-0.7 0.8q-0.4 0.4-1 0.6q-0.5 0.1-1 0.1h-23.7c-1.5 0-2.3-1-2.5-2.5l-2.5-9.8q0-0.1 0-0.1q0-0.1 0-0.2q0-0.1 0-0.2q0-0.1 0-0.2q-0.1-0.4-0.1-0.8q-0.1-0.5 0-0.9q0-0.4 0-0.8q0.1-0.4 0.2-0.9q0.1-0.1 0.3-0.2q0.2-0.1 0.4-0.2q0.2 0 0.4 0q0.2 0 0.4 0.1q0.1 0 0.2 0.1q0.1 0 0.2 0.1q0.1 0 0.2 0q0.1 0.1 0.3 0.1c0.5-0.1 0.7-0.6 1.2-0.7c0.5-0.2 1 0.2 1.5 0.4q0.3 0.1 0.6 0.1q0.2 0.1 0.5 0.1q0.3 0 0.5-0.1q0.3 0 0.6-0.1l2.4-0.4q0.2-0.1 0.4-0.1q0.2-0.1 0.4-0.1q0.2 0.1 0.4 0.1q0.2 0 0.4 0.1c0.4 0.2 0.7 0.7 1.2 0.7c1.1 0.1 1.5-1.3 2.5-1.3c0.8 0 1.2 1 2.1 1q0.1 0 0.2 0q0.2 0 0.3 0q0.1-0.1 0.3-0.1q0.1-0.1 0.2-0.2q0.1 0 0.2-0.1q0.2-0.1 0.3-0.1q0.1 0 0.3-0.1q0.1 0 0.2 0c0.4 0 0.7 0.3 0.7 0.5q0.1-0.1 0.2-0.2q0.1-0.1 0.2-0.2q0.2 0 0.3-0.1q0.2 0 0.3 0q0.2 0.1 0.4 0.1q0.2 0.1 0.3 0.1q0.2 0.1 0.3 0.1q0.2 0.1 0.4 0.2q0.1 0.1 0.3 0.1q0.2 0.1 0.3 0.1q0.2 0.1 0.4 0.1q0.2 0 0.3 0c0.9-0.2 1.5-1.1 2.3-0.8c0.5 0.1 0.7 0.7 1 1h1c0.4-0.2 0.6-0.7 1.1-0.8c0.6-0.1 1 0.4 1.6 0.5c0.6 0.1 1.2-0.4 1.9-0.4q0.2 0 0.5 0.1q0.2 0.1 0.4 0.2q0.2 0.2 0.4 0.4q0.1 0.2 0.2 0.5q0 0.4 0.1 0.8z" />
	<path id="Layer" class="s5" d="m477.6 211.4l0.3 3.5l0.5 6.2l0.4 6.1c0.1 0.1-0.2 0.1-0.2 0c-0.1-1.2-0.5-2.3-0.6-3.5c-0.2-2 0.1-4.1-0.1-6.1l-0.5-6.2c0-0.1 0.2-0.1 0.2 0z" />
	<path id="Layer" class="s5" d="m481.7 211.7l0.1 3.4l0.2 6l0.2 6.1c0 0.1-0.2 0.1-0.2 0l-0.1-3.4l-0.2-6.1l-0.2-6c0-0.2 0.2-0.2 0.2 0z" />
	<path id="Layer" class="s5" d="m485.5 212q0.1-0.1 0.1-0.1q0.1 0 0.1 0.1q0 0 0 0v3.3l-0.1 5.9v5.8q0 0.1 0 0.1q-0.1 0-0.1 0q-0.1 0-0.1 0q0 0 0-0.1v-3.3l0.1-5.8v-5.9q0 0 0 0z" />
	<path id="Layer" class="s5" d="m488.6 211.8q0 0 0 0q0.1 0 0.1 0q0 0 0 0.1l0.1 3.3l0.1 5.9l0.1 5.9q0 0.1 0 0.1q0 0-0.1 0q0 0 0 0q-0.1 0-0.1-0.1v-3.3l-0.2-5.9l-0.1-5.9q0-0.1 0.1-0.1z" />
	<path id="Layer" class="s5" d="m492.9 211.6q0.1-0.1 0.1-0.1q0.1 0 0.1 0.1q0 0 0 0l0.1 3.4l0.1 6.1l0.2 6.1q0 0.1-0.1 0.1q0 0 0 0q-0.1 0-0.1 0q-0.1 0-0.1-0.1v-3.4l-0.2-6.1l-0.1-6.1q0 0 0 0z" />
	<path id="Layer" class="s5" d="m496.8 211.8l0.2 3.5l0.5 6.1l0.4 6.1c0.1 0.1-0.2 0.1-0.2 0l-0.2-3.4l-0.5-6.2l-0.5-6.1c0-0.1 0.2-0.1 0.3 0z" />
	<path id="Layer" class="s5" d="m500.8 212.5l0.2 3.2l0.2 5.6c0.1 1.9-0.3 3.7-0.3 5.6c0.1 0.1-0.2 0.1-0.2 0l-0.1-3.2c-0.1-1.8 0.4-3.7 0.3-5.6l-0.3-5.6c0-0.1 0.2-0.1 0.2 0z" />
	<path id="Layer" class="s3" d="m488.2 197.1c-0.4 0-0.8-0.2-0.8-0.5c0-0.3 0.4-0.6 0.8-0.6c0.5 0 0.9 0.3 0.9 0.6c0 0.3-0.4 0.5-0.9 0.5z" />
	<path id="Layer" class="s1" d="m493.4 198.4c-0.4 0-0.8-0.2-0.8-0.5c0-0.4 0.4-0.6 0.8-0.6c0.5 0 0.8 0.2 0.8 0.6c0 0.3-0.3 0.5-0.8 0.5z" />
	<path id="Layer" class="s6" d="m486.2 201.2c-0.5 0-0.8-0.3-0.8-0.6c0-0.3 0.3-0.5 0.8-0.5c0.4 0 0.8 0.2 0.8 0.5c0 0.3-0.4 0.6-0.8 0.6z" />
	<path id="Layer" class="s3" d="m492.9 201.9c-0.3 0-0.5-0.1-0.5-0.3c0-0.2 0.2-0.4 0.5-0.4c0.3 0 0.6 0.2 0.6 0.4c0 0.2-0.3 0.3-0.6 0.3z" />
	<path id="Layer" class="s1" d="m496.2 202.8c-0.3 0-0.5-0.2-0.5-0.4c0-0.2 0.2-0.4 0.5-0.4c0.3 0 0.5 0.2 0.5 0.4c0 0.2-0.2 0.4-0.5 0.4z" />
	<path id="Layer" class="s6" d="m491.6 204.5c-0.3 0-0.5-0.2-0.5-0.4c0-0.2 0.2-0.3 0.5-0.3c0.3 0 0.5 0.1 0.5 0.3c0 0.2-0.2 0.4-0.5 0.4z" />
	<path id="Layer" class="s3" d="m497.8 203.9c-0.3 0-0.6-0.1-0.6-0.3c0-0.2 0.3-0.4 0.6-0.4c0.3 0 0.5 0.2 0.5 0.4c0 0.2-0.2 0.3-0.5 0.3z" />
	<path id="Layer" class="s1" d="m501 204.7c-0.2 0-0.5-0.1-0.5-0.3c0-0.2 0.3-0.4 0.5-0.4c0.3 0 0.6 0.2 0.6 0.4c0 0.2-0.3 0.3-0.6 0.3z" />
	<path id="Layer" class="s6" d="m496.5 206.5c-0.3 0-0.6-0.2-0.6-0.4c0-0.2 0.3-0.3 0.6-0.3c0.2 0 0.5 0.1 0.5 0.3c0 0.2-0.3 0.4-0.5 0.4z" />
	<path id="Layer" class="s3" d="m484.5 202c-0.1 0.3-0.3 0.5-0.5 0.5c-0.2 0-0.3-0.3-0.3-0.6c0.1-0.2 0.3-0.4 0.5-0.4c0.2 0 0.3 0.3 0.3 0.5z" />
	<path id="Layer" class="s1" d="m483.2 205.2c0 0.3-0.2 0.5-0.4 0.4c-0.2 0-0.3-0.2-0.3-0.5c0-0.3 0.2-0.5 0.4-0.5c0.2 0 0.3 0.3 0.3 0.6z" />
	<path id="Layer" class="s6" d="m482.1 200.4c0 0.3-0.2 0.5-0.4 0.5c-0.2-0.1-0.3-0.3-0.3-0.6c0-0.3 0.2-0.5 0.4-0.5c0.2 0.1 0.3 0.3 0.3 0.6z" />
	<path id="Layer" class="s3" d="m490.1 200.3c-0.1 0.3-0.3 0.5-0.5 0.5c-0.2 0-0.3-0.3-0.2-0.6c0-0.2 0.2-0.5 0.4-0.4c0.2 0 0.3 0.3 0.3 0.5z" />
	<path id="Layer" class="s1" d="m488.8 203.5c0 0.3-0.2 0.5-0.4 0.4c-0.2 0-0.3-0.2-0.3-0.5c0-0.3 0.2-0.5 0.4-0.5c0.2 0 0.4 0.3 0.3 0.6z" />
	<path id="Layer" class="s6" d="m487.7 198.7c0 0.3-0.2 0.5-0.4 0.5c-0.2-0.1-0.3-0.3-0.3-0.6c0-0.3 0.2-0.5 0.4-0.5c0.2 0.1 0.4 0.3 0.3 0.6z" />
	<path id="Layer" class="s1" d="m491.6 196.9c-0.1 0.2-0.2 0.5-0.4 0.4c-0.2 0-0.4-0.2-0.3-0.5c0-0.3 0.2-0.5 0.4-0.5c0.2 0 0.3 0.3 0.3 0.6z" />
	<path id="Layer" class="s6" d="m490.5 192.1c-0.1 0.3-0.2 0.5-0.4 0.5c-0.2-0.1-0.4-0.3-0.3-0.6c0-0.3 0.2-0.5 0.4-0.5c0.2 0.1 0.3 0.3 0.3 0.6z" />
</svg>