<svg version="1.2" xmlns="http://www.w3.org/2000/svg" viewBox="0 0 752 556" width="752" height="556">
	<title>hero-carousel-1-svg</title>
	<style>
		.s0 { fill: #e6e6e6 } 
		.s1 { fill: #ffffff } 
		.s2 { fill: #f2f2f2 } 
		.s3 { fill: #ffb8b8 } 
		.s4 { fill: #ffb6b6 } 
		.s5 { fill: #2f2e41 } 
		.s6 { fill: #3f3d56 } 
		.s7 { fill: #0ea2bd } 
		.s8 { fill: #d1d3d4 } 
	</style>
	<path id="Layer" class="s0" d="m533.7 407.7h-404.9c-1.8 0-3.6-0.4-5.2-1c-1.7-0.7-3.2-1.7-4.4-3c-1.3-1.3-2.3-2.8-3-4.4c-0.6-1.7-1-3.4-1-5.2v-329.7c0-1.8 0.4-3.6 1-5.2c0.7-1.7 1.7-3.2 3-4.5c1.2-1.2 2.7-2.2 4.4-2.9c1.6-0.7 3.4-1 5.2-1h404.9c1.8 0 3.6 0.3 5.2 1c1.7 0.7 3.2 1.7 4.5 2.9c1.2 1.3 2.2 2.8 2.9 4.5c0.7 1.6 1 3.4 1 5.2v329.7c0 1.8-0.3 3.5-1 5.2c-0.7 1.6-1.7 3.1-2.9 4.4c-1.3 1.3-2.8 2.3-4.5 3c-1.6 0.6-3.4 1-5.2 1z" />
	<path id="Layer" class="s1" d="m524.6 60.4c1.7 0 3.4 0.4 5 1c1.6 0.7 3 1.7 4.2 2.9c1.2 1.2 2.2 2.6 2.9 4.2c0.6 1.6 1 3.3 1 5.1v201.9c0 16.1-3.2 32-9.4 46.9c-6.2 14.8-15.2 28.3-26.6 39.7c-11.3 11.4-24.8 20.4-39.7 26.6c-14.8 6.1-30.8 9.3-46.9 9.3h-277.1c-1.7 0-3.4-0.3-5-1c-1.6-0.6-3.1-1.6-4.3-2.8c-1.2-1.2-2.2-2.7-2.8-4.3c-0.7-1.6-1-3.3-1-5v-311.3c0-1.8 0.3-3.5 1-5.1c0.6-1.6 1.6-3 2.8-4.2c1.2-1.2 2.7-2.2 4.3-2.9c1.6-0.6 3.3-1 5-1z" />
	<path id="Layer" class="s0" d="m459.9 200.5h-73.4q-1.2 0-2.2-0.5q-1.1-0.4-1.9-1.2q-0.8-0.8-1.3-1.9q-0.4-1.1-0.4-2.2v-36.5q0-1.2 0.4-2.3q0.5-1 1.3-1.8q0.8-0.8 1.9-1.3q1-0.4 2.2-0.4h73.4q1.1 0 2.2 0.4q1.1 0.5 1.9 1.3q0.8 0.8 1.2 1.8q0.5 1.1 0.5 2.3c4.5 12.9 5.2 25.2 0 36.5q0 1.1-0.5 2.2q-0.4 1.1-1.2 1.9q-0.8 0.8-1.9 1.2q-1.1 0.5-2.2 0.5z" />
	<path id="Layer" class="s1" d="m451.2 196.9h-62.4q-1 0-1.9-0.3q-0.9-0.4-1.5-1.1q-0.7-0.7-1.1-1.6q-0.4-0.9-0.4-1.9v-31q0-1 0.4-1.9q0.4-0.9 1.1-1.6q0.6-0.7 1.5-1q0.9-0.4 1.9-0.4h62.4q1 0 1.9 0.4q0.9 0.3 1.6 1q0.7 0.7 1 1.6q0.4 0.9 0.4 1.9c4.2 11 4.9 21.5 0 31q0 1-0.4 1.9q-0.3 0.9-1 1.6q-0.7 0.7-1.6 1.1q-0.9 0.3-1.9 0.3z" />
	<path id="Layer" class="s0" d="m447.8 219.6h-49.4c-1.5 0-2.9-0.6-3.9-1.6c-1-1-1.6-2.4-1.6-3.9c0-1.4 0.6-2.8 1.6-3.8c1-1.1 2.4-1.7 3.9-1.7h49.4c1.5 0 2.9 0.6 3.9 1.7c1 1 1.6 2.4 1.6 3.8c0 1.5-0.6 2.9-1.6 3.9c-1 1-2.4 1.6-3.9 1.6z" />
	<path id="Layer" class="s0" d="m414.9 164.5q0.1 0 0.2 0q0.2 0.1 0.3 0.1q0.1 0.1 0.2 0.1l20.6 11.6q0.5 0.3 0.8 0.8q0.3 0.5 0.3 1.1q0 0.5-0.3 1q-0.3 0.5-0.8 0.8l-20.6 11.7q-0.5 0.3-1 0.3q-0.6 0-1.1-0.3q-0.5-0.3-0.8-0.8q-0.3-0.5-0.3-1v-23.3q0-0.4 0.2-0.8q0.2-0.4 0.5-0.7q0.3-0.3 0.7-0.5q0.4-0.1 0.8-0.1q0.1 0 0.3 0z" />
	<path id="Layer" class="s2" d="m715.5 513.7q0.6 1.3 0.7 2.7q0.1 1.4-0.2 2.8q-0.2 1.3-0.9 2.6c-0.8 1.5-1.6 3-2.4 4.5c-2.6 5.2-5.3 10.6-9.3 14.8q-2.2 2.3-5 4.1q-2.7 1.8-5.8 2.9q-3 1.2-6.3 1.6q-3.2 0.5-6.5 0.2l-9.7 3.5l-0.5 0.1v-0.1v-0.3q0.1-5.2 1.4-10.4q1.3-5.1 3.6-9.8q2.4-4.7 5.7-8.8q3.3-4.1 7.4-7.4q1.1-0.9 2.4-1.8q1.2-0.8 2.4-1.6q1.3-0.7 2.6-1.4q1.3-0.7 2.7-1.3l0.3-0.1l0.1 0.3c0.7 4.5 1.8 9 2.3 11l3.4-13.5l0.4-0.1q1.3-0.4 2.7-0.3q1.4 0 2.7 0.4q1.3 0.4 2.4 1.2q1.2 0.8 2 1.9q0.9 1 1.4 2.3z" />
	<path id="Layer" class="s3" d="m464.8 163.1c0.9-1.5 2.3-2.6 4-3.1c1.6-0.6 3.4-0.5 5 0.2c1.6 0.7 2.9 2 3.6 3.6l29.1 31.1l-3.7 12.6l-29.3-34.1c-1 0.4-2 0.6-3.1 0.5c-1-0.1-2-0.4-2.9-0.9c-0.9-0.5-1.7-1.2-2.3-2c-0.6-0.9-1-1.8-1.2-2.9c-0.4-1.7-0.1-3.4 0.8-5z" />
	<path id="Layer" class="s4" d="m582 545.2h-9.7l-4.6-37.3h14.3v37.3z" />
	<path id="Layer" class="s5" d="m584.4 542.1v12.5h-31.2v-0.4c0-1.6 0.3-3.1 0.9-4.6c0.6-1.5 1.5-2.8 2.6-4c1.2-1.1 2.5-2 4-2.6c1.5-0.6 3-0.9 4.6-0.9l5.8-4.4l0.3 0.2l10.3 4.2z" />
	<path id="Layer" class="s4" d="m651.1 545.2h-9.7l-4.6-37.3h14.3v37.3z" />
	<path id="Layer" class="s5" d="m653.5 542.1v12.5h-31.2v-0.4c0-1.6 0.3-3.1 0.9-4.6c0.6-1.5 1.5-2.8 2.7-4c1.1-1.1 2.4-2 3.9-2.6c1.5-0.6 3.1-0.9 4.7-0.9l5.7-4.4l0.3 0.2l10.3 4.2z" />
	<path id="Layer" class="s5" d="m628.2 322.1c0 0 12.2 12.6 12.2 23c0 10.4-3.1 24.7 0 27.8c3 3.1 6.8 6.9 2.2 11.5c-4.5 4.5-6.8 6.8-3.8 9.8c3.1 3.1 1.6 56.2 1.6 56.2l15.9 71.4h-20.1l-25.5-71.4l-6.8-59.2l-22.1 57l2.4 74.2l-21-0.6l-8.7-79c0 0 12.9-75.1 10.7-77c-2.3-1.9 0-5.8 0-5.8l6-28.8z" />
	<path id="Layer" class="s6" d="m583.1 238.5l-73-15l-30.9-38.3l9.4-13.5l27.5 29.1c0 0 54.4 6 73.4 10.7c19 4.7 14.9 21 14.9 21z" />
	<path id="Layer" class="s0" d="m483 184.9q-0.4 0.4-0.9 0.6q-0.4 0.2-1 0.3q-0.5 0.1-1 0.1q-0.5-0.1-0.9-0.3q-0.4-0.2-0.8-0.5q-0.4-0.2-0.7-0.6q-0.3-0.3-0.5-0.8q-0.2-0.4-0.3-0.8q-0.2-0.5-0.3-0.9q0-0.5-0.1-1q0-0.4 0.1-0.9c0.1-1.4 0.5-2.8 1.2-4.1c0.6-1.3 1.6-2.4 2.7-3.3c1.2-0.8 2.5-1.5 3.9-1.8c1.4-0.3 2.9-0.4 4.3-0.1h1l-4 9.7q-0.1 0.5-0.3 1q-0.2 0.5-0.5 0.9q-0.2 0.5-0.5 0.9q-0.3 0.5-0.6 0.9q-0.4 0.4-0.8 0.7z" />
	<path id="Layer" class="s0" d="m638 322.8l3.5 21c0 0-8.8 7.2-9.6 9c-0.7 1.9-28.8 5.5-34.2 4.9c-5.3-0.6-15.1-6-15.1-6c0 0-8.4 3.6-10.7 4.2c-2.3 0.6-6.8-4.3-6.8-4.3l2.3-16.5z" />
	<path id="Layer" class="s6" d="m641.4 277.3c0 0-2 15.9-0.5 17.4c1.6 1.5-1.5 10.7-4.5 16.8c-3 6 2.3 6.8 2.3 11.3c0 4.6 2.2 21.3 2.2 21.3c0 0-23.5 1.5-27.3-2.3c-3.8-3.8-9.9-0.7-18.2 7.6c-8.4 8.4-26.5 1.5-30.3-2.2c-3.8-3.8 2.9-17.5 5.2-20.2c2.3-2.6-2.2 0.5-4.5-7.9c-2.2-8.4 2.2-7.6 6-11.4c3.8-3.8 0-10.7-3-17.5c-3-6.8-0.8-57.7-0.8-69.9c0-12.1 16.7-13.7 16.7-13.7l6.7-8.3l4.8-6.1l9.5-0.4h0.3l9.2-0.3l4.5 5.2l9.9 11.5l11.3 2.2c9.2 3.1 6.9 22.1 6.9 22.1z" />
	<path id="Layer" class="s4" d="m605.3 188.5c-10.8 0-19.5-8.7-19.5-19.5c0-10.8 8.7-19.5 19.5-19.5c10.8 0 19.5 8.7 19.5 19.5c0 10.8-8.7 19.5-19.5 19.5z" />
	<path id="Layer" class="s5" d="m618.2 183.9c5.9-9 7.1-15.7 0.4-18.7q-2.2 1.3-4.7 2.2q-2.5 0.9-5.2 1.3q-2.6 0.4-5.2 0.3q-2.7-0.1-5.3-0.6q2.1-1.9 4.1-3.7l-15.4 3.4q-0.4 2.4-0.9 4.9q-0.3-1.5-0.5-3.1q-0.3-1.6-0.4-3.1q-0.1-1.6-0.1-3.2q0-1.6 0.1-3.1c0.5-4.2 2.1-8.4 5-11.2c2.9-2.8 7.3-4 10.9-2.5q2-0.9 4.2-1.4q2.2-0.4 4.4-0.3q2.3 0.1 4.4 0.7q2.1 0.6 4.1 1.7c5.1 3.1 4.4 11.7 9.8 15c6.1 3.7-7.4 25.2-9.7 21.4z" />
	<path id="Layer" class="s0" d="m619.7 196.7q0 0 0 0q-0.1 0-0.1 0q0 0 0 0q0 0.1-0.1 0.1q-0.6 0.3-1.2 0.6q-0.6 0.3-1.3 0.5q-0.7 0.1-1.4 0.2q-0.7 0.1-1.4 0.1q-0.9 0.1-1.8 0q-0.9-0.1-1.8-0.4q-0.8-0.3-1.7-0.7q-0.8-0.4-1.5-1c-1-1-4.9 1-7.5 2.1q-1 0.5-2.1 0.7q-1.1 0.2-2.2 0.2q-1.1 0-2.1-0.2q-1.1-0.2-2.1-0.6l4.8-6.1l8-1.8h2l9 1.1z" />
	<path id="Layer" class="s6" d="m425.4 155.7h-2v-143h78.6v2h-76.6v141z" />
	<path id="Layer" class="s7" d="m572.4 3.8c2.4 2.4 3.8 5.8 3.8 9.2c0 3.4-1.4 6.8-3.8 9.2c-2.4 2.4-5.7 3.8-9.2 3.8h-53c-3.4 0-6.7-1.4-9.2-3.8c-2.4-2.4-3.8-5.8-3.8-9.2c0-3.4 1.4-6.8 3.8-9.2c2.5-2.4 5.8-3.8 9.2-3.8h53c3.5 0 6.8 1.4 9.2 3.8z" />
	<path id="Layer" class="s7" d="m423.2 168.8c-6.6 0-11.9-5.4-11.9-12c0-6.6 5.3-11.9 11.9-11.9c6.6 0 12 5.3 12 11.9c0 6.6-5.4 12-12 12z" />
	<path id="Layer" class="s2" d="m278.5 198.8l15-3.5l52.4-12.1c1.9-0.4 2.7 2.5 0.8 2.9l-15 3.5l-52.4 12.1c-1.9 0.5-2.7-2.4-0.8-2.9z" />
	<path id="Layer" class="s2" d="m334.9 167.6l13.8 6.3l12.2 5.6c2.8 1.3 7.7 2.9 6.4 6.9c-0.6 1.9-2.4 3.1-3.8 4.3l-5.2 4.3l-10.4 8.4c-1.5 1.2-3.6-0.9-2.1-2.1l11.9-9.7q0.8-0.6 1.6-1.2q0.7-0.6 1.5-1.2q0.7-0.6 1.4-1.3q0.8-0.6 1.5-1.3c0.6-0.6 1.2-1.4 0.4-2.1q-0.3-0.2-0.6-0.5q-0.3-0.2-0.7-0.3q-0.3-0.2-0.7-0.4q-0.3-0.1-0.7-0.3l-28-12.9c-1.8-0.8-0.2-3.3 1.5-2.5z" />
	<path id="Layer" class="s0" d="m729.2 281.4q0.1 0.9 0.1 1.8q0 0.9-0.1 1.8q-0.1 0.9-0.3 1.8q-0.2 0.9-0.5 1.7q-0.7 1.8-1.6 3.5q-1 1.6-2.2 3.1q-1.2 1.4-2.7 2.7q-1.4 1.2-3.1 2.2c-5.3 3.4-11.7 4.7-17.8 5.3c-5.8 0.5-11.6 0.4-17.3 1.3q-1.7 0.2-3.3 0.5q-1.6 0.3-3.3 0.6q-1.6 0.4-3.3 0.8q-1.6 0.4-3.2 0.8c-8.4 2.2-16.6 4.8-24.8 7.7q-3.3 1.2-6.6 2.5q0 0-0.1 0q-0.1 0-0.2 0.1q-0.1 0-0.1 0q-0.1 0.1-0.2 0.1c0 0-0.1 0-0.1 0.1c-0.1 0 0.2-0.2 0.1 0q-0.1 0.1-0.2 0.3q-0.1 0.1-0.2 0.3q0 0.1-0.1 0.3q-0.1 0.1-0.1 0.3l-2.4 4.5q-0.2 0.5-0.5 1.1q-0.2 0.5-0.5 1q-0.3 0.5-0.6 0.9q-0.3 0.5-0.6 1q-0.5 0.6-1.2 1q-0.7 0.4-1.4 0.6q-0.8 0.2-1.6 0.1q-0.8 0-1.5-0.3q-0.4-0.1-0.7-0.3q-0.4-0.2-0.7-0.5q-0.4-0.2-0.6-0.5q-0.3-0.3-0.6-0.7q-0.3-0.4-0.7-0.9q-0.4-0.4-0.8-0.8q-0.4-0.4-0.8-0.8q-0.4-0.3-0.9-0.7c-4.5-3.6-10.1-5.3-15.1-8.1q-0.8-0.5-1.7-1.1q-0.8-0.6-1.6-1.2q-0.8-0.6-1.6-1.3q-0.7-0.7-1.4-1.5q-0.6-0.7-1.1-1.4q-0.5-0.8-0.9-1.6q-0.5-0.8-0.8-1.6q-0.4-0.8-0.6-1.7q-0.5-1.8-0.7-3.6q-0.1-1.9 0-3.7q0.1-1.8 0.5-3.6q0.4-1.8 1.1-3.6q0.7-1.8 1.7-3.5q0.9-1.7 2.1-3.3q1.2-1.5 2.6-2.9q1.3-1.4 2.9-2.6q1.8-1.3 3.7-2.4q1.9-1.2 3.9-2.1q2-1 4.1-1.8q2-0.7 4.2-1.3q2.2-0.7 4.5-1.2q2.3-0.6 4.6-1.1q2.3-0.5 4.6-1q2.3-0.4 4.6-0.7q10.4-1.8 20.8-2.9q10.5-1.2 21-1.6q2.5-0.1 5-0.2q2.6-0.1 5.1-0.1q2.5 0 5.1 0.1q2.5 0.1 5 0.2c6 0.4 12 1.7 17 5.1c4.5 3 8 7.6 8.7 13z" />
	<path id="Layer" class="s1" d="m718.2 283.2q0.1 0.8 0.1 1.6q0 0.9-0.1 1.7q-0.1 0.8-0.3 1.6q-0.2 0.8-0.5 1.5q-0.6 1.7-1.5 3.1q-0.8 1.5-1.9 2.9q-1.1 1.3-2.5 2.4q-1.3 1.1-2.7 2c-4.8 3.1-10.6 4.2-16.2 4.8c-5.2 0.5-10.4 0.4-15.6 1.1q-1.5 0.3-3 0.5q-1.5 0.3-2.9 0.6q-1.5 0.3-3 0.7q-1.5 0.3-2.9 0.7c-7.6 2-15 4.4-22.4 7q-3 1.1-6 2.2q0 0-0.1 0q-0.1 0.1-0.1 0.1q-0.1 0-0.2 0.1q0 0-0.1 0c0 0-0.1 0-0.1 0.1c-0.1 0 0.2-0.2 0 0q0 0.1-0.1 0.3q-0.1 0.1-0.2 0.2q0 0.1-0.1 0.3q0 0.1-0.1 0.2l-2.1 4.2q-0.2 0.4-0.5 0.9q-0.2 0.5-0.4 0.9q-0.3 0.5-0.6 0.9q-0.3 0.4-0.6 0.9q-0.4 0.5-1 0.8q-0.6 0.4-1.3 0.6q-0.7 0.2-1.4 0.1q-0.7 0-1.4-0.2q-0.3-0.2-0.7-0.4q-0.3-0.1-0.6-0.4q-0.3-0.2-0.5-0.5q-0.3-0.3-0.5-0.6q-0.3-0.4-0.7-0.7q-0.3-0.4-0.7-0.8q-0.4-0.3-0.7-0.7q-0.4-0.3-0.8-0.7c-4.1-3.2-9.1-4.8-13.6-7.3q-0.8-0.5-1.6-1q-0.8-0.5-1.5-1.1q-0.7-0.5-1.4-1.2q-0.7-0.6-1.3-1.3q-0.5-0.6-1-1.3q-0.4-0.6-0.8-1.4q-0.4-0.7-0.7-1.4q-0.3-0.8-0.5-1.6q-0.5-1.6-0.6-3.3q-0.2-1.6-0.1-3.3q0.1-1.7 0.5-3.3q0.3-1.6 1-3.2q0.6-1.6 1.5-3.2q0.8-1.5 1.9-2.9q1.1-1.4 2.3-2.7q1.3-1.2 2.7-2.3q1.6-1.2 3.3-2.2q1.7-1 3.5-1.9q1.8-0.9 3.7-1.6q1.9-0.7 3.8-1.2q2.1-0.6 4.1-1.1q2.1-0.5 4.1-1q2.1-0.4 4.2-0.8q2.1-0.4 4.2-0.7q9.3-1.7 18.8-2.7q9.4-1 18.9-1.3q2.3-0.2 4.6-0.2q2.3-0.1 4.6-0.1q2.3 0 4.6 0.1q2.3 0 4.5 0.2c5.4 0.3 10.9 1.5 15.4 4.5c4 2.8 7.2 6.9 7.9 11.8z" />
	<path id="Layer" class="s0" d="m700.9 277l-73.6 13.5c-0.5 0.1-0.9 0-1.3-0.2c-0.3-0.3-0.6-0.6-0.7-1.1c0-0.4 0.1-0.8 0.3-1.2c0.2-0.3 0.6-0.6 1.1-0.7l73.6-13.5c0.4-0.1 0.8 0 1.2 0.2c0.3 0.3 0.6 0.6 0.7 1.1c0 0.4-0.1 0.8-0.3 1.2c-0.2 0.3-0.6 0.6-1 0.7z" />
	<path id="Layer" class="s0" d="m702.7 286.8l-73.6 13.6c-0.5 0.1-0.9 0-1.3-0.3c-0.3-0.2-0.6-0.6-0.6-1c-0.1-0.5 0-0.9 0.2-1.2c0.3-0.4 0.6-0.7 1.1-0.7l73.6-13.6c0.4-0.1 0.8 0 1.2 0.3c0.3 0.2 0.6 0.6 0.7 1c0 0.4 0 0.9-0.3 1.2c-0.2 0.4-0.6 0.6-1 0.7z" />
	<path id="Layer" class="s0" d="m639.5 308.6l-8.6 1.6c-0.4 0.1-0.9 0-1.2-0.3c-0.4-0.2-0.6-0.6-0.7-1c-0.1-0.4 0-0.9 0.2-1.2c0.3-0.4 0.7-0.6 1.1-0.7l8.6-1.6c0.4-0.1 0.8 0 1.2 0.3c0.3 0.2 0.6 0.6 0.7 1c0 0.4-0.1 0.9-0.3 1.2c-0.2 0.4-0.6 0.6-1 0.7z" />
	<path id="Layer" class="s8" d="m633.2 349.5c-3.7 0.7-7.3-1.8-8-5.6c-0.7-3.7 1.8-7.3 5.5-8c3.8-0.7 7.4 1.8 8.1 5.5c0.7 3.8-1.8 7.4-5.6 8.1z" />
	<path id="Layer" class="s0" d="m252.3 198.6h-62.8c-1.5 0-2.9-0.3-4.2-0.8c-1.4-0.6-2.6-1.4-3.6-2.4c-1-1-1.8-2.2-2.4-3.6c-0.5-1.3-0.8-2.7-0.8-4.2v-41.4c0-1.5 0.3-2.9 0.8-4.2c0.6-1.4 1.4-2.6 2.4-3.6c1-1 2.2-1.8 3.6-2.4c1.3-0.5 2.7-0.8 4.2-0.8h62.8c1.5 0 2.9 0.3 4.3 0.8c1.3 0.6 2.5 1.4 3.5 2.4c1 1 1.9 2.2 2.4 3.6c0.6 1.3 0.8 2.7 0.8 4.2v41.4c0 1.5-0.2 2.9-0.8 4.2c-0.5 1.4-1.4 2.6-2.4 3.6c-1 1-2.2 1.8-3.5 2.4c-1.4 0.5-2.8 0.8-4.3 0.8z" />
	<path id="Layer" class="s1" d="m245.4 196.4h-54.7c-1.2 0-2.5-0.3-3.6-0.7c-1.2-0.5-2.3-1.2-3.2-2.1c-0.8-0.9-1.5-2-2-3.1c-0.5-1.2-0.8-2.4-0.8-3.7v-36c0-1.3 0.3-2.6 0.8-3.7c0.5-1.2 1.2-2.2 2-3.1c0.9-0.9 2-1.6 3.2-2.1c1.1-0.5 2.4-0.7 3.6-0.7h54.7c1.3 0 2.5 0.2 3.7 0.7c1.2 0.5 2.2 1.2 3.1 2.1c0.9 0.9 1.6 1.9 2.1 3.1c0.5 1.1 0.7 2.4 0.7 3.7v36c0 1.3-0.2 2.5-0.7 3.7c-0.5 1.1-1.2 2.2-2.1 3.1c-0.9 0.9-1.9 1.6-3.1 2.1c-1.2 0.4-2.4 0.7-3.7 0.7z" />
	<path id="Layer" class="s0" d="m261.2 236h-80.7c-0.5-0.1-0.9-0.2-1.3-0.6c-0.4-0.4-0.5-0.8-0.5-1.3c0-0.5 0.1-1 0.5-1.4c0.4-0.3 0.8-0.5 1.3-0.5h80.7c0.5 0 1 0.2 1.3 0.5c0.4 0.4 0.6 0.9 0.6 1.4c0 0.5-0.2 0.9-0.6 1.3c-0.3 0.4-0.8 0.5-1.3 0.6z" />
	<path id="Layer" class="s0" d="m261.2 225.2h-80.7c-0.5 0-0.9-0.2-1.3-0.6c-0.4-0.3-0.5-0.8-0.5-1.3c0-0.5 0.1-1 0.5-1.3c0.4-0.4 0.8-0.6 1.3-0.6h80.7c0.5 0 1 0.2 1.3 0.6c0.4 0.3 0.6 0.8 0.6 1.3c0 0.5-0.2 1-0.6 1.3c-0.3 0.4-0.8 0.6-1.3 0.6z" />
	<path id="Layer" class="s0" d="m261.2 246.7h-80.7c-0.5 0-0.9-0.2-1.3-0.5c-0.4-0.4-0.6-0.9-0.6-1.4c0-0.5 0.2-1 0.6-1.3c0.4-0.4 0.8-0.6 1.3-0.6h80.7c0.5 0 1 0.2 1.3 0.6c0.4 0.3 0.6 0.8 0.6 1.3c0 0.5-0.2 1-0.6 1.4c-0.3 0.3-0.8 0.5-1.3 0.5z" />
	<path id="Layer" class="s0" d="m261.2 257.5h-80.7c-0.5 0-0.9-0.2-1.3-0.6c-0.4-0.3-0.6-0.8-0.6-1.3c0-0.5 0.2-1 0.6-1.4c0.4-0.3 0.8-0.5 1.3-0.5h80.7c0.5 0 1 0.2 1.3 0.5c0.4 0.4 0.6 0.9 0.6 1.4c0 0.5-0.2 1-0.6 1.3c-0.3 0.4-0.8 0.6-1.3 0.6z" />
	<path id="Layer" class="s0" d="m261.2 268.2h-80.7c-0.5 0-0.9-0.2-1.3-0.5c-0.4-0.4-0.6-0.9-0.6-1.4c0-0.5 0.2-0.9 0.6-1.3c0.4-0.3 0.8-0.5 1.3-0.5h80.7c0.5 0 1 0.2 1.3 0.5c0.4 0.4 0.6 0.8 0.6 1.3c0 0.5-0.2 1-0.6 1.4c-0.3 0.3-0.8 0.5-1.3 0.5z" />
	<path id="Layer" class="s0" d="m261.2 279h-80.7c-0.5 0-0.9-0.2-1.3-0.6c-0.4-0.3-0.5-0.8-0.5-1.3c0-0.5 0.1-1 0.5-1.3c0.4-0.4 0.8-0.6 1.3-0.6h80.7c0.5 0 1 0.2 1.3 0.6c0.4 0.3 0.6 0.8 0.6 1.3c0 0.5-0.2 1-0.6 1.3c-0.3 0.4-0.8 0.6-1.3 0.6z" />
	<path id="Layer" class="s6" d="m216.8 254.3h2v77h-144.6v-2h142.6v-75z" />
	<path id="Layer" class="s7" d="m3.8 340.2c-2.4-2.4-3.8-5.8-3.8-9.2c0-3.4 1.4-6.8 3.8-9.2c2.4-2.4 5.8-3.8 9.2-3.8h53c3.4 0 6.8 1.4 9.2 3.8c2.4 2.4 3.8 5.8 3.8 9.2c0 3.4-1.4 6.8-3.8 9.2c-2.4 2.4-5.8 3.8-9.2 3.8h-53c-3.4 0-6.8-1.4-9.2-3.8z" />
	<path id="Layer" class="s7" d="m219.2 260.1c-6.6 0-11.9-5.3-11.9-11.9c0-6.6 5.3-12 11.9-12c6.6 0 12 5.4 12 12c0 6.6-5.4 11.9-12 11.9z" />
	<path id="Layer" class="s2" d="m281.5 248.5l15.1 3.2c17.5 3.8 13.1 4.5 30.6 8.2c1.9 0.4 1.4 3.4-0.5 3l-15.1-3.2c-17.6-3.8-13.1-4.5-30.6-8.2c-1.9-0.4-1.4-3.4 0.5-3z" />
	<path id="Layer" class="s2" d="m323.8 241.1l9.9 11.6l8.7 10.2c1.9 2.3 5.7 5.8 2.8 8.9c-1.3 1.5-3.4 1.9-5.3 2.3l-6.5 1.7l-13 3.2c-1.9 0.5-2.9-2.3-1-2.8l14.9-3.7q1-0.2 1.9-0.4q1-0.3 1.9-0.5q1-0.2 1.9-0.5q0.9-0.3 1.8-0.6c0.9-0.3 1.7-0.7 1.3-1.7q-0.2-0.4-0.4-0.7q-0.2-0.3-0.4-0.6q-0.2-0.3-0.5-0.6q-0.2-0.3-0.5-0.6l-19.9-23.5c-1.3-1.5 1.2-3.2 2.4-1.7z" />
	<path id="Layer" class="s0" d="m384.7 345.5c-15.4 0-27.8-12.4-27.8-27.8c0-15.4 12.4-27.8 27.8-27.8c15.3 0 27.7 12.4 27.7 27.8c0 15.4-12.4 27.8-27.7 27.8z" />
	<path id="Layer" class="s1" d="m381.9 341.9c-11.6 0-21.1-9.4-21.1-21.1c0-11.7 9.5-21.1 21.1-21.1c11.7 0 21.2 9.4 21.2 21.1c0 11.7-9.5 21.1-21.2 21.1z" />
	<path id="Layer" class="s0" d="m378.2 335.3q-0.4 0-0.8-0.1q-0.3-0.1-0.6-0.3q-0.3-0.1-0.6-0.3q-0.3-0.3-0.5-0.6l-7.6-10.1c-0.5-0.6-0.7-1.4-0.6-2.3c0.1-0.8 0.6-1.5 1.2-2c0.7-0.5 1.5-0.7 2.3-0.6c0.8 0.1 1.6 0.6 2 1.2l5 6.6l12.7-19.1c0.5-0.7 1.2-1.1 2-1.3c0.8-0.1 1.6 0 2.3 0.5c0.7 0.4 1.2 1.1 1.3 1.9c0.2 0.8 0 1.7-0.4 2.4l-15.2 22.7q-0.2 0.3-0.5 0.6q-0.2 0.2-0.5 0.4q-0.4 0.2-0.7 0.3q-0.4 0.1-0.8 0.1q0 0 0 0z" />
	<path id="Layer" class="s3" d="m639.1 347.2c-1.8-0.3-3.3-1.3-4.4-2.7c-1-1.3-1.5-3.1-1.4-4.8c0.1-1.8 0.9-3.4 2.1-4.6l19.7-37.8l13.1-0.7l-22.4 39c0.7 0.8 1.2 1.7 1.5 2.7c0.3 1 0.3 2 0.2 3.1c-0.2 1-0.6 2-1.2 2.8c-0.6 0.9-1.4 1.6-2.2 2.1c-1.5 0.9-3.3 1.2-5 0.9z" />
	<path id="Layer" class="s6" d="m618.9 209.7c0 0 23.7-7.6 29.7 10.6c6.1 18.2 26.5 67.6 26.5 67.6l-21.9 44.8l-9.9-10.6l10.6-31.1l-30.4-45.6z" />
	<path id="Layer" class="s0" d="m654.3 329.1q0.2 0.5 0.2 1q0 0.6-0.1 1.1q-0.1 0.5-0.3 1q-0.2 0.4-0.5 0.7q-0.4 0.3-0.8 0.6q-0.4 0.2-0.8 0.4q-0.5 0.1-0.9 0.2q-0.5 0-1 0q-0.4-0.1-0.9-0.2q-0.4-0.1-0.9-0.2q-0.4-0.2-0.8-0.4c-1.3-0.6-2.5-1.5-3.4-2.6c-0.9-1.1-1.6-2.4-2-3.8c-0.4-1.4-0.5-2.8-0.3-4.3c0.2-1.4 0.7-2.8 1.5-4l0.4-0.9l7.6 7.2q0.4 0.4 0.7 0.8q0.4 0.3 0.7 0.7q0.4 0.4 0.7 0.9q0.3 0.4 0.5 0.8q0.3 0.5 0.4 1z" />
	<path id="Layer" class="s6" d="m384.4 355.1v75h65.7v2h-67.7v-77h2z" />
	<path id="Layer" class="s7" d="m523.2 436.7c-0.6 1.6-1.6 3-2.8 4.3c-1.2 1.2-2.6 2.1-4.2 2.8c-1.6 0.6-3.3 1-5 1h-53c-3.4 0-6.7-1.4-9.2-3.8c-2.4-2.5-3.8-5.8-3.8-9.2c0-3.5 1.4-6.8 3.8-9.2c2.5-2.5 5.8-3.8 9.2-3.8h53c1.7 0 3.4 0.3 5 1c1.6 0.6 3 1.6 4.2 2.8c1.2 1.2 2.2 2.6 2.8 4.2c0.7 1.6 1 3.3 1 5c0 1.7-0.3 3.4-1 4.9z" />
	<path id="Layer" class="s7" d="m382 360.9c-6.6 0-11.9-5.4-11.9-12c0-6.6 5.3-11.9 11.9-11.9c6.6 0 12 5.3 12 11.9c0 6.6-5.4 12-12 12z" />
</svg>